<svg id="bcc435fc-ea2f-433a-8b96-b706af51951b" data-name="Layer 1" 
    xmlns="http://www.w3.org/2000/svg" viewBox="0 0 100.17 100.17">
    <title>after_effects_cc</title>
    <path d="M1,1c32.17,0,64.33.05,96.5-.08,3,0,3.6.6,3.58,3.58q-.19,46.5,0,93c0,3-.6,3.6-3.58,3.58q-46.5-.19-93,0c-3,0-3.6-.6-3.58-3.58C1.05,65.33,1,33.17,1,1ZM95,98.61c2.39.68,3.33-.12,2.64-2.59q0-44.5,0-89l-.5-1.25c-.79-1.67-2.32-1-3.51-1-28.46,0-56.91,0-85.36-.11C4.89,4.66,4.6,6,4.62,8.72c.1,15.31,0,30.62,0,45.93,0,14.46.18,28.92.28,43.38.38,1.24,1.24.79,2,.58Z" transform="translate(-0.92 -0.92)" fill="#c88df6"/>
    <path d="M5,98c-.1-14.46-.23-28.92-.28-43.38,0-15.31,0-30.62,0-45.93,0-2.75.27-4.06,3.65-4.05,28.45.15,56.9.07,85.36.11,1.19,0,2.72-.7,3.51,1L97.64,7q0,44.52,0,89L95,98.61H7ZM96,52c0-13.49-.11-27,.07-40.48,0-3.91-.83-5.64-5.22-5.61-26.65.18-53.3.14-79.95,0-3.63,0-5,1-5,4.82q.18,40.74,0,81.46c0,3.76,1.32,4.85,5,4.84q40-.18,80,0c4.37,0,5.27-1.69,5.22-5.6C95.9,78.33,96,65.17,96,52Z" transform="translate(-0.92 -0.92)" fill="#060023"/>
    <path d="M95,98.61,97.65,96C98.34,98.49,97.4,99.29,95,98.61Z" transform="translate(-0.92 -0.92)" fill="#1f033e"/>
    <path d="M5,98l2,.58C6.19,98.82,5.33,99.27,5,98Z" transform="translate(-0.92 -0.92)" fill="#1f033e"/>
    <path d="M97.64,7l-.5-1.25Z" transform="translate(-0.92 -0.92)" fill="#1f033e"/>
    <path d="M96,52c0,13.16-.11,26.32.07,39.48,0,3.91-.85,5.63-5.22,5.6q-40-.25-80,0c-3.63,0-5-1.08-4.95-4.84q.18-40.73,0-81.46c0-3.77,1.33-4.84,5-4.82,26.65.11,53.3.15,80,0,4.39,0,5.27,1.7,5.22,5.61C95.9,25,96,38.52,96,52ZM27.39,65.91c2.7-1,1.44-5.46,4.63-5.71,4.07-.33,8.49-1.39,11.6,2.71,3.21,9.88,3.21,9.88,10.44,8.71C52,64.2,49.93,56.8,47.83,49.41,45.64,41.68,43.25,34,41.25,26.22c-.92-3.61-3.54-2.42-5.55-2.33-1.63.08-4.05-1.52-4.88,1.66C26.9,40.44,23,55.33,18.83,70.16c-.59,2.12,0,2.59,1.69,2.85C26.14,73.87,26.13,69.28,27.39,65.91ZM82.78,49.35c.11-8.22-5.17-12.42-9.87-13.32-6.52-1.25-12.34,2-15,8.74a25.68,25.68,0,0,0,.49,20.85c2.8,6.16,8.4,6.31,13.92,7.64,3,.71,4.39-.84,6.17-1.72s1.93-3.49,1.37-5.39-2.39-.81-3.76-.82a30.34,30.34,0,0,1-7.15-.45C65.4,64,63.78,61,64,57.66c.24-3.56,3.38-1.36,5.15-1.65a51.75,51.75,0,0,1,7.48-.12C82.86,55.82,82.94,55.72,82.78,49.35Z" transform="translate(-0.92 -0.92)" fill="#1f033e"/>
    <path d="M27.39,65.91c-1.26,3.37-1.25,8-6.87,7.1-1.72-.26-2.28-.73-1.69-2.85,4.14-14.83,8.07-29.72,12-44.61.83-3.18,3.25-1.58,4.88-1.66,2-.09,4.63-1.28,5.55,2.33,2,7.78,4.39,15.46,6.58,23.19C49.93,56.8,52,64.2,54.06,71.62c-7.23,1.17-7.23,1.17-10.44-8.71-.49-1.3,0-3.58-1.66-3.71-4.07-.33-8.33-.71-12.22.19C27.52,59.9,28.12,63.64,27.39,65.91ZM31.94,47c-1.11,1.52-1.33,4.24-.3,4.57a15.91,15.91,0,0,0,7.79.26c1.9-.4,1-2.38.44-3.76-.62-2.73-1.36-5.45-1.82-8.21a2.84,2.84,0,0,0-2.58-2.57c-1.77-.2-1.32,1.54-1.61,2.51C33.15,42.15,32.57,44.57,31.94,47Z" transform="translate(-0.92 -0.92)" fill="#c88df6"/>
    <path d="M82.78,49.35c.16,6.37.08,6.47-6.15,6.54a51.75,51.75,0,0,0-7.48.12c-1.77.29-4.91-1.91-5.15,1.65C63.78,61,65.4,64,68.94,64.88a30.34,30.34,0,0,0,7.15.45c1.37,0,3.16-1.22,3.76.82s.55,4.44-1.37,5.39S75.27,74,72.31,73.26c-5.52-1.33-11.12-1.48-13.92-7.64a25.68,25.68,0,0,1-.49-20.85c2.67-6.72,8.49-10,15-8.74C77.61,36.93,82.89,41.13,82.78,49.35Zm-13.41.81C71.21,48.71,75,52,75.26,47.85c.22-3-1.7-5.37-5.1-5.64-2.81-.23-6.53,3.35-6,6.07C64.73,51.79,67.73,48.88,69.37,50.16Z" transform="translate(-0.92 -0.92)" fill="#c88df6"/>
    <path d="M27.39,65.91c.73-2.27.13-6,2.35-6.52,3.89-.9,8.15-.52,12.22-.19,1.68.13,1.17,2.41,1.66,3.71-3.11-4.1-7.53-3-11.6-2.71C28.83,60.45,30.09,64.9,27.39,65.91Z" transform="translate(-0.92 -0.92)" fill="#060023"/>
    <path d="M31.94,47c.63-2.4,1.21-4.82,1.92-7.2.29-1-.16-2.71,1.61-2.51a2.84,2.84,0,0,1,2.58,2.57c.46,2.76,1.2,5.48,1.82,8.21C36.74,51.29,34.14,50.65,31.94,47Z" transform="translate(-0.92 -0.92)" fill="#1f033e"/>
    <path d="M31.94,47c2.2,3.68,4.8,4.32,7.93,1.07.59,1.38,1.46,3.36-.44,3.76a15.91,15.91,0,0,1-7.79-.26C30.61,51.21,30.83,48.49,31.94,47Z" transform="translate(-0.92 -0.92)" fill="#060023"/>
    <path d="M69.37,50.16c-1.64-1.28-4.64,1.63-5.26-1.88-.48-2.72,3.24-6.3,6-6.07,3.4.27,5.32,2.65,5.1,5.64C75,52,71.21,48.71,69.37,50.16Z" transform="translate(-0.92 -0.92)" fill="#1f033e"/>
</svg>