<svg xmlns="http://www.w3.org/2000/svg" viewBox="0 0 213.11 67.65">
  <title>Apex</title>
  <g id="129d59f0-62ae-44a1-b269-bcce4902d6c9" data-name="text">
    <g id="75043864-eccb-43e2-845b-bb9da068f001" data-name="x" class="text">
      <path class="logo-fill" d="M212.25,16.82a3.62,3.62,0,0,0-.62-5.25,4.17,4.17,0,0,0-5.33.64L200,19.81a3.6,3.6,0,0,0,.28,5.28c2,2,4.51.57,5.54-.52Z"></path>
      <path class="logo-fill" d="M211.92,41.33,188,12.5c-.53-.51-2.55-2.9-5.25-.68a3.6,3.6,0,0,0-.7,5.31l10.13,12.25-9.67,11.67c-1.22,1.64-2.66,3.93-.05,6,2.2,1.79,4.49.42,6.13-1.62l8.48-10.23,9.07,10.88c.86,1,3,2.9,5.48.83C212.66,46.09,214.1,44,211.92,41.33Z"></path>
    </g>
    <path id="23da9dcb-e71d-4a9b-969e-47803aeccd97" data-name="e" class="text logo-fill" d="M173.54,32.22c7.78,0,6.19-6,5.94-7C178,18.57,173,10.78,162.91,10.78c-14,0-17.76,12.36-17.87,17.81,0,.11,0,.5,0,.5,0,16.36,13.73,18.78,17.74,18.78,6.08,0,11-2.28,14-6.44.5-.68,2.22-2.94,0-5-2-1.95-4.33-.16-5.15.71a11.54,11.54,0,0,1-9,4C156.23,41.07,152,35,152,29c0-7.18,5.28-11.79,11-11.79,6.13,0,9,5.71,9.53,7.88.07.3.11.75-.55.75l-15.06,0A3.14,3.14,0,0,0,153.65,29c0,3.11,3.17,3.14,3.29,3.15Z"></path>
    <path id="e8bb50c9-5330-4622-a3d2-503ab1411e34" data-name="p" class="text logo-fill" d="M124.56,47.69c10.63,0,17.76-7.37,17.76-18.34,0-10.73-7.3-18.27-17.76-18.34a19.22,19.22,0,0,0-9,2.22,4,4,0,0,0-2,4.68c.87,2.75,2.64,2,3.41,1.58A16.89,16.89,0,0,1,123.84,18c6.76,0,11.3,4.57,11.3,11.37a11,11,0,0,1-11.3,11.37,11.36,11.36,0,0,1-11.56-11.15h0v-.11c0-.14-.12-13.22-.12-13.57,0-1.13-.1-3.66-3.68-3.66a3.32,3.32,0,0,0-3.69,3.66V63.1c0,1.7.05,4.55,3.47,4.55S112,64.51,112,63.18c0-.95,0-21.72,0-21.72l.2.33C114.8,46.14,120.3,47.69,124.56,47.69Z"></path>
    <path id="724ddc3a-1892-49f7-8281-c78b19363c84" data-name="a" class="text logo-fill" d="M96.86,47.93a3.59,3.59,0,0,0,3.77-3.8s0-27.49,0-28.63c0-1.43-.57-3.37-3.64-3.37s-3.52,2.13-3.52,3.18,0,1.65,0,1.65-2.28-6.11-12.19-6.11a18.55,18.55,0,0,0-12.9,4.75c-3.46,3.29-5.3,8-5.3,13.59s1.75,10.5,5.07,13.8A17.69,17.69,0,0,0,81,47.83h.17a18.9,18.9,0,0,0,9.28-2.5,3.68,3.68,0,0,0,1.65-4c-.6-2.53-2.83-2-3.55-1.65a17.4,17.4,0,0,1-6.66,1.5c-6.82,0-11.59-5-11.59-12A11.24,11.24,0,0,1,81.86,17.38a11.16,11.16,0,0,1,8.45,3.45,12.45,12.45,0,0,1,3.08,9.43S93.31,43.32,93.31,44,93.39,47.93,96.86,47.93Z"></path>
  </g>
  <g id="b652f0ec-3ad0-4f74-8a2f-afedcc665a3b" data-name="logo">
    <path class="logo-fill" d="M38.23,38.36H28.81A10.66,10.66,0,0,1,18.21,27.8,10.48,10.48,0,0,1,28.9,17.3,10.5,10.5,0,0,1,39.59,27.7c0,.19,0,9.3,0,9.3a1.36,1.36,0,0,1-1.36,1.36Zm-1.36-2.72c0-3.11,0-7.89,0-7.95a7.8,7.8,0,0,0-8-7.68,7.8,7.8,0,0,0-8,7.78,7.93,7.93,0,0,0,7.9,7.85Z"></path>
    <path class="logo-fill" d="M54.7,54.14H32.32a1.36,1.36,0,1,1,0-2.72h21V28.07C53.34,15.71,44,5.28,32.5,4.81h-.23A1.36,1.36,0,0,1,31,3.4a1.38,1.38,0,0,1,1.4-1.31h.26c12.92.53,23.44,12.18,23.44,26V52.79a1.36,1.36,0,0,1-1.36,1.36Z"></path>
    <path class="logo-fill" d="M48.1,47.75H28.56c-11.25,0-20.41-8.81-20.41-19.64A20.48,20.48,0,0,1,28.62,7.65a20.9,20.9,0,0,1,14.61,6A20.09,20.09,0,0,1,49.46,28c0,.23,0,18.35,0,18.35a1.36,1.36,0,0,1-1.36,1.36ZM28.62,10.37A17.76,17.76,0,0,0,10.87,28.11C10.87,37.44,18.81,45,28.56,45H46.74c0-6.89,0-16.95,0-17C46.71,18.47,38.41,10.37,28.62,10.37Z"></path>
    <path class="logo-fill" d="M27.87,4.75a.91.91,0,0,1-.91-.9l0-2.94a.91.91,0,0,1,.9-.91h0a.91.91,0,0,1,.91.9l0,2.94a.91.91,0,0,1-.9.91Z"></path>
    <path class="logo-fill" d="M24.28,5a.91.91,0,0,1-.89-.76l-.46-2.9a.91.91,0,0,1,1.79-.28L25.18,4a.91.91,0,0,1-.75,1Z"></path>
    <path class="logo-fill" d="M20.77,5.83a.91.91,0,0,1-.86-.63L19,2.4a.91.91,0,0,1,1.73-.55l.88,2.8a.91.91,0,0,1-.86,1.18Z"></path>
    <path class="logo-fill" d="M17.43,7.15a.91.91,0,0,1-.81-.51L15.32,4a.91.91,0,0,1,1.63-.8l1.29,2.64a.91.91,0,0,1-.81,1.3Z"></path>
    <path class="logo-fill" d="M14.31,8.95a.91.91,0,0,1-.75-.39L11.89,6.14a.91.91,0,1,1,1.49-1l1.67,2.42a.91.91,0,0,1-.74,1.42Z"></path>
    <path class="logo-fill" d="M11.5,11.19a.9.9,0,0,1-.66-.29l-2-2.14a.91.91,0,0,1,1.32-1.24l2,2.14a.91.91,0,0,1-.66,1.53Z"></path>
    <path class="logo-fill" d="M9,13.83a.9.9,0,0,1-.56-.19L6.18,11.81A.91.91,0,0,1,7.3,10.39l2.31,1.82A.91.91,0,0,1,9,13.83Z"></path>
    <path class="logo-fill" d="M7,16.8a.9.9,0,0,1-.45-.12L4,15.23a.91.91,0,0,1,.9-1.57l2.55,1.46A.91.91,0,0,1,7,16.8Z"></path>
    <path class="logo-fill" d="M5.45,20A.91.91,0,0,1,5.12,20L2.39,18.92A.91.91,0,0,1,3,17.23l2.74,1.06A.91.91,0,0,1,5.45,20Z"></path>
    <path class="logo-fill" d="M4.39,23.48l-.2,0-2.87-.64A.91.91,0,0,1,1.72,21l2.87.64a.91.91,0,0,1-.2,1.79Z"></path>
    <path class="logo-fill" d="M3.84,27H3.78L.85,26.83A.91.91,0,0,1,1,25l2.93.21A.91.91,0,0,1,3.84,27Z"></path>
    <path class="logo-fill" d="M.91,30.87a.91.91,0,0,1-.07-1.81l2.93-.23a.91.91,0,0,1,.14,1.81L1,30.86Z"></path>
    <path class="logo-fill" d="M1.5,34.86a.91.91,0,0,1-.2-1.79l2.86-.66a.91.91,0,1,1,.41,1.77l-2.86.66Z"></path>
    <path class="logo-fill" d="M2.68,38.72A.91.91,0,0,1,2.35,37l2.73-1.08a.91.91,0,1,1,.67,1.69L3,38.65A.9.9,0,0,1,2.68,38.72Z"></path>
    <path class="logo-fill" d="M4.42,42.36A.91.91,0,0,1,4,40.67L6.51,39.2a.91.91,0,1,1,.91,1.57L4.88,42.24A.9.9,0,0,1,4.42,42.36Z"></path>
    <path class="logo-fill" d="M6.69,45.7a.91.91,0,0,1-.57-1.61l2.29-1.84a.91.91,0,0,1,1.13,1.42L7.25,45.5A.9.9,0,0,1,6.69,45.7Z"></path>
    <path class="logo-fill" d="M9.42,48.67a.91.91,0,0,1-.67-1.52l2-2.16a.91.91,0,1,1,1.33,1.23l-2,2.16A.9.9,0,0,1,9.42,48.67Z"></path>
    <path class="logo-fill" d="M12.57,51.2a.91.91,0,0,1-.75-1.42l1.65-2.43a.91.91,0,1,1,1.5,1L13.32,50.8A.91.91,0,0,1,12.57,51.2Z"></path>
    <path class="logo-fill" d="M16.06,53.23a.91.91,0,0,1-.82-1.3l1.27-2.65a.91.91,0,1,1,1.63.79l-1.27,2.65A.91.91,0,0,1,16.06,53.23Z"></path>
    <path class="logo-fill" d="M19.81,54.73a.91.91,0,0,1-.87-1.17l.86-2.81a.91.91,0,0,1,1.73.53l-.86,2.81A.91.91,0,0,1,19.81,54.73Z"></path>
    <path class="logo-fill" d="M23.82,55.64h-.14a.91.91,0,0,1-.76-1l.44-2.9a.91.91,0,1,1,1.79.27l-.44,2.9A.91.91,0,0,1,23.82,55.64Z"></path>
    <rect class="logo-fill" x="27.02" y="51.22" width="1.81" height="4.75" rx="0.91" ry="0.91"></rect>
  </g>
  <style>
  .logo-fill{
    fill: #1494CE
  }
  </style>
</svg>