<svg id="f7cf6575-deb8-41ae-8ef7-b6472fe9f5bc" data-name="Layer 1" 
    xmlns="http://www.w3.org/2000/svg" viewBox="0 0 100.13 100.13">
    <title>asp.net</title>
    <path d="M39.91,33c4.76-1.52,9.31-2.1,12.69,2.75C51.05,46.66,56.3,55.54,61,64.61a12.77,12.77,0,0,0-.53-5.77c-.77-2.55.65-2.84,2.58-2.75L65,62c.19,1.48.58,2.84,2.17,3.64,2.88-3,3.2-7.18,5.15-10.53,4.53-7.8,9.67-15.28,12.85-23.8l7.27-.09c1.17,0,1.87.38,1.41,1.72-6.66,10.52-11,22.18-16.7,33.21h0l-.42.09.14.67c-1.51,2.61-4.09,3-6.71,3-5,0-10.11-.09-15.17-.15-2.11-4.08-6.29-6.91-7.32-11.6C46.2,51.38,42,46.12,38.26,40.56c-2.73-4.09-4.22-4.2-7.62-.81a69.48,69.48,0,0,0-11.4,15.59c-.4.71-1.18,1.8-.94,2.16,3.57,5.5-.92,8.71-3.4,12.49-3.18,1.39-6.5,1.05-9.81.78A49.28,49.28,0,0,1,11,53.67,185.09,185.09,0,0,1,23,34h0a2.06,2.06,0,0,0,2-.93l7.05-.1C34.7,35.92,37.31,35.78,39.91,33Z" transform="translate(-0.93 -0.94)" fill="#0077b4"/>
    <path d="M14.9,70c2.48-3.78,7-7,3.4-12.49-.24-.36.54-1.45.94-2.16a69.48,69.48,0,0,1,11.4-15.59c3.4-3.39,4.89-3.28,7.62.81C42,46.12,46.2,51.38,47.68,58.17c1,4.69,5.21,7.52,7.32,11.6-7.3.5-10.53-1.2-12.87-8-2.45-7.11-4.25-14.44-6.44-22.07a24.28,24.28,0,0,0-9.35,14c-1.19,4.8-2,9.86-5.78,13.52C19,68.74,17.27,70.08,14.9,70Z" transform="translate(-0.93 -0.94)" fill="#17a9e4"/>
    <path d="M85.18,31.31c-3.18,8.52-8.32,16-12.85,23.8-2,3.35-2.27,7.52-5.15,10.53-1.59-.8-2-2.16-2.17-3.64,2.1-.63,2.33-2.38,2.81-4.21,1.49-5.76,3.05-11.52,4.87-17.18C74.61,34.67,78.67,31.26,85.18,31.31Z" transform="translate(-0.93 -0.94)" fill="#17a9e4"/>
    <path d="M63,56.09c-1.93-.09-3.35.2-2.58,2.75A12.77,12.77,0,0,1,61,64.61c-4.68-9.07-9.93-18-8.38-28.89-.05-1.7.52-2.12,2-1a15.91,15.91,0,0,1,5.06,7.69C61.18,46.84,63.1,51.23,63,56.09Z" transform="translate(-0.93 -0.94)" fill="#17a9e4"/>
    <path d="M77.16,66.15c5.65-11,10-22.69,16.7-33.21,1,4.72,1.08,9.1-1.84,13.54C88.4,52,85.61,58,81.32,63.11,80.21,64.42,79.43,66.36,77.16,66.15Z" transform="translate(-0.93 -0.94)" fill="#17a9e4"/>
    <path d="M23,34A185.09,185.09,0,0,0,11,53.67a49.28,49.28,0,0,0-5.9,17.1c-1,0-2.88.83-2.43-1.12C5.81,55.88,10.8,43.08,22.55,34.1,22.67,34,22.88,34.05,23,34Z" transform="translate(-0.93 -0.94)" fill="#17a9e4"/>
    <path d="M39.91,33c-2.6,2.81-5.21,3-7.84,0A9.77,9.77,0,0,1,39.91,33Z" transform="translate(-0.93 -0.94)" fill="#17a9e4"/>
    <path d="M25,33.11A2.06,2.06,0,0,1,23,34,1.63,1.63,0,0,1,25,33.11Z" transform="translate(-0.93 -0.94)" fill="#17a9e4"/>
    <path d="M76.88,66.91l-.14-.67.42-.09A1,1,0,0,1,76.88,66.91Z" transform="translate(-0.93 -0.94)" fill="#17a9e4"/>
</svg>