<svg id="fffb920e-29cb-40d1-b3e0-ea4778a08747" data-name="Layer 1" 
    xmlns="http://www.w3.org/2000/svg" viewBox="0 0 100.13 100.18">
    <title>audacity</title>
    <path d="M101,71c0,9.17-.09,18.33.07,27.5,0,2.15-.42,2.57-2.57,2.56q-47.5-.14-95,0c-2.15,0-2.6-.41-2.57-2.56C1.09,89.33,1,80.17,1,71c1.59,1.23,1.4,3.21,2,4.84,2.34,5.89,5.56,11,11.86,13.32,5,1.85,5.75,1.34,5.77-3.92.06-15.13-.1-30.28.25-45.41.23-9.93,5.26-17.25,14-22,17-9.3,47.4-2.59,46.34,27.15-.49,13.62.06,27.28-.17,40.92-.08,4.32,1.59,4.73,5,3.6C92.91,87.24,96.35,82,98.83,75.73,99.47,74.12,99.14,72.06,101,71ZM28.83,57.92c-1.6-5-.36-10.11-.72-15.16-.11-1.54,0-3.23-2.13-3.21-1.7,0-2,1.36-2,2.83q0,22.73,0,45.44c0,1.5.53,2.79,2.16,2.72s2-1.48,1.95-2.92c0-3.82-.17-7.66,0-11.48.08-2-.63-4.32,1.13-6.08,3.13,3.52-.85,10.1,5.31,12.41.32.12.1,1.58.23,2.4a4.94,4.94,0,0,0,.53,1.79c3.84-.24,7.67-1,11.5.06.07-3.16,2.85-3.08,4.61-4.21,1.09,1.49-.46,3.6,1.78,4.66,1.56-1.17,1.06-3.79,3.05-4.6,1.6,4.24,5.91-1.21,7.72,3.21.48-2.89.08-5.58,2.31-6,2.54-.53,2.79-2,2.75-3.86-.06-2.34,1.92-2.89,3.24-4,1.33,4.06.16,8.25.68,12.34.25,2-1.44,5.68,1.85,5.7,3.88,0,2-3.86,2.09-5.95.21-10.29.09-20.59.1-30.89,0-3.65,0-7.31,0-11,0-1.45-.34-2.8-2-2.88S72.88,40.56,72.86,42c0,2.33-.13,4.66,0,7,.14,2.14-.39,3.59-2.74,3.85-2.24-3.08-2.57-8.47-9.17-5.41-2.69,1.24-6.82-4.28-10.32.37-.35.46-1.49.07-2.24-.49-2-1.47-3.84-3-3.91-5.94-2.91,1.82-.81,5-3.19,7.19,1.64-5.58-5.07-1.95-5.15-5.9C33.64,47.91,34.44,54.48,28.83,57.92Z" transform="translate(-0.93 -0.89)" fill="#fbfbfc"/>
    <path d="M1,58C1,40.21,1.05,22.42,1,4.62.93,2,1,.87,4.36.89Q51,1.18,97.64.89c3.37,0,3.42,1.14,3.41,3.74C101,23.09,101,41.54,101,60c-.76-.21-.87-.82-1-1.49-1.73-8-5.16-14.77-13.2-18.14-1.27-.53-1.54-1.36-1.8-2.61C81.36,20.09,70.3,10.21,52.16,9.5,39.06,9,22.28,15.54,18,32.38c-1.2,4.7-2.43,8.43-7.29,10.57-2.85,1.25-4.33,4.44-6,7.13C3.05,52.58,3.41,55.92,1,58Z" transform="translate(-0.93 -0.89)" fill="#fbfbfc"/>
    <path d="M1,58c2.41-2.08,2.05-5.42,3.65-7.92,1.72-2.69,3.2-5.88,6-7.13,4.86-2.14,6.09-5.87,7.29-10.57C22.28,15.54,39.06,9,52.16,9.5,70.3,10.21,81.36,20.09,85,37.76c.26,1.25.53,2.08,1.8,2.61,8,3.37,11.47,10.16,13.2,18.14.15.67.26,1.28,1,1.49V71c-1.86,1.06-1.53,3.12-2.17,4.73C96.35,82,92.91,87.24,86.09,89.48c-3.43,1.13-5.1.72-5-3.6.23-13.64-.32-27.3.17-40.92C82.3,15.22,51.94,8.51,34.9,17.81c-8.72,4.77-13.75,12.09-14,22-.35,15.13-.19,30.28-.25,45.41,0,5.26-.73,5.77-5.77,3.92C8.6,86.84,5.38,81.73,3,75.84,2.4,74.21,2.59,72.23,1,71ZM15.72,43.29c-4.34,1.44-7,4.57-8.94,8.43-.33.64-.65,1,0,1.61s1.37.4,1.55-.22C9.51,48.86,14.4,47.52,15.72,43.29Z" transform="translate(-0.93 -0.89)" fill="#28508b"/>
    <path d="M72.22,71.84c-1.32,1.14-3.3,1.69-3.24,4,0,1.87-.21,3.33-2.75,3.86-2.23.47-1.83,3.16-2.31,6-1.81-4.42-6.12,1-7.72-3.21-2,.81-1.49,3.43-3.05,4.6-2.24-1.06-.69-3.17-1.78-4.66-1.76,1.13-4.54,1-4.61,4.21-3.83-1-7.66-.3-11.5-.06a4.94,4.94,0,0,1-.53-1.79c-.13-.82.09-2.28-.23-2.4-6.16-2.31-2.18-8.89-5.31-12.41-1.94-4-.1-8.1-.36-12.14,5.61-3.44,4.81-10,7.34-15.31.08,4,6.79.32,5.15,5.9,2.38-2.15.28-5.37,3.19-7.19.07,3,1.93,4.47,3.91,5.94.75.56,1.89,1,2.24.49,3.5-4.65,7.63.87,10.32-.37,6.6-3.06,6.93,2.33,9.15,5.41.9-.54,2,.07,1.81.67C70.06,59.64,73.25,65.71,72.22,71.84Z" transform="translate(-0.93 -0.89)" fill="#ebcf0a"/>
    <path d="M72.22,71.84c1-6.13-2.16-12.2-.28-18.38.19-.6-.91-1.21-1.81-.67,2.37-.26,2.9-1.71,2.76-3.85-.16-2.32-.06-4.65,0-7,0-1.4.31-2.83,2.07-2.76s2,1.43,2,2.88c0,3.65,0,7.31,0,11,0,10.3.11,20.6-.1,30.89,0,2.09,1.79,6-2.09,5.95-3.29,0-1.6-3.66-1.85-5.7C72.38,80.09,73.55,75.9,72.22,71.84Z" transform="translate(-0.93 -0.89)" fill="#28508b"/>
    <path d="M28.83,57.92c.26,4-1.58,8.15.36,12.14-1.76,1.76-1.05,4-1.13,6.08-.14,3.82,0,7.66,0,11.48,0,1.44-.28,2.85-1.95,2.92S24,89.32,24,87.82q0-22.72,0-45.44c0-1.47.31-2.82,2-2.83,2.11,0,2,1.67,2.13,3.21C28.47,47.81,27.23,52.94,28.83,57.92Z" transform="translate(-0.93 -0.89)" fill="#28508b"/>
    <path d="M15.72,43.29c-1.32,4.23-6.21,5.57-7.42,9.82-.18.62-.9.85-1.55.22s-.3-1,0-1.61C8.74,47.86,11.38,44.73,15.72,43.29Z" transform="translate(-0.93 -0.89)" fill="#fbfbfc"/>
</svg>