<svg id="f0533314-c0d1-498e-b94f-2c096beccc82" data-name="Layer 1" 
    xmlns="http://www.w3.org/2000/svg" viewBox="0 0 100.13 100.13">
    <title>audition_cc</title>
    <path d="M50.5,101c-15.5,0-31-.07-46.5.07C1.5,101.09.93,100.5.94,98q.14-47,0-94C.93,1.5,1.5.93,4,.94q47,.14,94,0c2.5,0,3.07.56,3.06,3.06q-.14,47,0,94c0,2.5-.56,3.09-3.06,3.07C82.17,100.94,66.33,101,50.5,101ZM5,51.12c0,14,.08,28-.06,42,0,3,.65,4,3.84,4q42.21-.18,84.43,0c3.17,0,3.86-1,3.85-4q-.15-42,0-83.93c0-3.16-.72-4.25-4.09-4.24Q51,5.13,9,4.93C5.68,4.91,4.9,6,4.93,9.16,5.09,23.14,5,37.13,5,51.12Z" transform="translate(-0.94 -0.94)" fill="#00e3ba"/>
    <path d="M5,51.12c0-14,.09-28-.07-42C4.9,6,5.68,4.91,9,4.93q42,.2,83.93,0c3.37,0,4.11,1.08,4.09,4.24q-.16,42,0,83.93c0,3-.68,4-3.85,4q-42.21-.18-84.43,0c-3.19,0-3.87-1-3.84-4C5.08,79.1,5,65.11,5,51.12Zm47.92,20.5c-4.05-14-8.28-27.52-11.75-41.24-1.17-4.64-3.75-4.24-7.09-4.46-4-.26-4.25,2-4.17,5,0,.45-.41.89-.54,1.36q-5,17.64-10,35.27c-.4,1.44-1.1,3.24.29,4.08,1.11.68,2.92.51,4.34.27,1.84-.3,1.72-2,2.1-3.5.8-3.09,1.14-7.9,3.1-8.76,3.34-1.47,7.89-1,11.74-.3,2.74.5,2.05,4.17,2.74,6.36C45.83,72.33,45.62,72.4,52.92,71.62ZM82,54c0-4-.13-8,0-12,.13-2.78-.32-4.21-3.7-4.14-3.16.07-3.42,1.45-3.38,4,.12,6.49.07,13,0,19.49,0,3.88-2.32,5.33-6.08,4.15-3-.94-4-2.89-4-5.93.14-6.16-.1-12.33.1-18.49.09-3-1.44-3.28-3.69-3.06-1.92.2-4.51-1-4.41,2.81.17,6.66-.19,13.34.13,20,.23,4.91,1.78,9.67,7.31,10.9a26.57,26.57,0,0,0,11.4-.08c4.22-.94,7.38-2.66,6.31-8.13C81.51,60.44,82,57.18,82,54Z" transform="translate(-0.94 -0.94)" fill="#002620"/>
    <path d="M52.92,71.62c-7.3.78-7.09.71-9.2-6-.69-2.19,0-5.86-2.74-6.36-3.85-.71-8.4-1.17-11.74.3-2,.86-2.3,5.67-3.1,8.76-.38,1.47-.26,3.2-2.1,3.5-1.42.24-3.23.41-4.34-.27-1.39-.84-.69-2.64-.29-4.08q5-17.63,10-35.27c.13-.47.55-.91.54-1.36-.08-2.92.14-5.22,4.17-5,3.34.22,5.92-.18,7.09,4.46C44.64,44.1,48.87,57.63,52.92,71.62ZM35.73,34.33l-.86-.1C33.59,39.5,31.5,44.74,31.3,50.06c-.16,4,4.14,1.28,6.34,1.85,1.93.49,2.37-.35,1.71-2.52C37.86,44.46,36.9,39.36,35.73,34.33Z" transform="translate(-0.94 -0.94)" fill="#00e2ba"/>
    <path d="M82,54c0,3.17-.49,6.43.11,9.48C83.18,69,80,70.68,75.8,71.62a26.57,26.57,0,0,1-11.4.08c-5.53-1.23-7.08-6-7.31-10.9-.32-6.65,0-13.33-.13-20C56.86,37,59.45,38.2,61.37,38c2.25-.22,3.78.07,3.69,3.06-.2,6.16,0,12.33-.1,18.49-.07,3,.93,5,4,5.93,3.76,1.18,6-.27,6.08-4.15,0-6.5.09-13,0-19.49,0-2.51.22-3.89,3.38-4,3.38-.07,3.83,1.36,3.7,4.14C81.87,46,82,50,82,54Z" transform="translate(-0.94 -0.94)" fill="#00e3ba"/>
    <path d="M35.73,34.33c1.17,5,2.13,10.13,3.62,15.06.66,2.17.22,3-1.71,2.52-2.2-.57-6.5,2.16-6.34-1.85.2-5.32,2.29-10.56,3.57-15.83Z" transform="translate(-0.94 -0.94)" fill="#002620"/>
</svg>