<svg version="1.0" 
    xmlns="http://www.w3.org/2000/svg" width="609.000000pt" height="510.000000pt" viewBox="0 0 609.000000 510.000000" preserveAspectRatio="xMidYMid meet">
    <g transform="translate(0.000000,510.000000) scale(0.100000,-0.100000)" fill="#000000" stroke="none">
        <path d="M570 4900 c-18 -18 -20 -33 -20 -148 0 -112 2 -131 18 -145 17 -15 77 -17 664 -17 612 0 646 1 661 18 14 15 17 41 17 145 0 114 -2 129 -20 147 -20 20 -33 20 -660 20 -627 0 -640 0 -660 -20z"/>
        <path d="M2818 4904 c-154 -37 -214 -91 -448 -404 l-191 -255 -777 -5 -777 -5 -65 -23 c-174 -62 -303 -207 -339 -380 -8 -37 -11 -530 -11 -1650 0 -1761 -4 -1650 63 -1776 65 -124 210 -230 351 -255 84 -15 4548 -15 4632 0 142 26 286 129 351 255 67 127 63 -22 63 2124 0 1715 -2 1953 -15 2005 -48 182 -189 322 -372 370 -82 22 -2377 21 -2465 -1z m2438 -346 c68 -47 78 -75 82 -222 l4 -129 -33 7 c-19 4 -61 11 -94 16 -34 6 -620 10 -1337 10 -703 0 -1278 2 -1278 5 0 10 199 271 227 297 15 15 46 32 68 37 24 5 496 9 1181 8 l1141 -2 39 -27z m-23 -672 c42 -17 83 -66 97 -114 14 -51 14 -3123 0 -3174 -12 -41 -75 -103 -117 -115 -37 -10 -4509 -10 -4546 0 -42 12 -105 74 -117 115 -14 51 -14 3123 0 3174 13 47 55 97 95 114 46 20 4540 20 4588 0z"/>
        <path d="M2825 3459 c-189 -15 -410 -90 -570 -191 -239 -151 -439 -410 -528 -683 -40 -122 -45 -151 -57 -277 -42 -450 148 -873 512 -1146 229 -171 534 -264 816 -249 568 30 1040 417 1182 967 58 225 46 498 -32 725 -105 304 -349 583 -635 724 -212 105 -452 150 -688 130z m295 -345 c339 -64 623 -322 726 -659 26 -83 28 -103 28 -265 0 -163 -2 -181 -28 -265 -82 -270 -262 -475 -520 -595 -215 -101 -478 -112 -704 -29 -286 104 -493 324 -588 624 -27 85 -29 99 -28 265 0 160 3 182 27 263 102 332 375 586 707 657 107 23 271 25 380 4z"/>
        <path d="M2821 2860 c-230 -48 -425 -206 -509 -413 -29 -73 -52 -177 -52 -243 0 -71 33 -131 90 -161 53 -28 99 -29 150 -3 57 29 80 68 95 165 17 105 41 161 95 219 54 58 125 93 219 106 94 13 137 34 168 81 49 74 30 170 -43 226 -31 23 -48 28 -103 30 -36 1 -86 -2 -110 -7z"/>
    </g>
</svg>
