<svg id="e1e1213a-da58-4af6-94c6-85e0f1861bde" data-name="Layer 1" 
    xmlns="http://www.w3.org/2000/svg" viewBox="0 0 643.79 264.33">
    <title>career</title>
    <path d="M.16,245.62c.5-1.07.59-2.25,1.05-3.35a16.11,16.11,0,0,1,11.42-9.8,12.88,12.88,0,0,1,3.28-.42H78.48c2.22,0,3.1.89,3.1,3.09a13.45,13.45,0,0,0,0,1.42c.29,2.52-1.54,3.77-3.71,3.86a10.41,10.41,0,0,0-6.67,2.39c-2.59,2.29-2.83,5.26-2,8.35.76,2.74,2.9,4.17,5.51,4.89a32.36,32.36,0,0,0,4.18.75,3,3,0,0,1,2.65,2.86c0,.95,0,1.9,0,2.86a2.39,2.39,0,0,1-2.43,2.38c-.28,0-.56,0-.83,0q-31.41,0-62.82,0c-4.95,0-8.87-2.35-11.95-6.1a13.77,13.77,0,0,1-3.19-7.41c0-.1-.13-.19-.2-.28Zm72.12,12.14a9.75,9.75,0,0,1-4.27-3.9,1.8,1.8,0,0,0-1.93-1.11q-25,0-50.11,0H15c-.54,0-.76-.33-.94-.75a1.05,1.05,0,0,1,.27-1.19c.47-.54,1.07-.43,1.66-.43H65.52c.77,0,1.42.08,1.1-1.09a3.43,3.43,0,0,1,0-1.88c.43-1.39-.33-1.34-1.31-1.33H16.16a9.51,9.51,0,0,1-1.07,0,1.07,1.07,0,0,1-1.06-1c0-.64.46-1,1-1.13a4.24,4.24,0,0,1,1.07,0q24.45,0,48.92,0c1.42,0,2.77.12,3.41-1.51.06-.14.23-.23.33-.35a11.65,11.65,0,0,1,3.76-2.83q-28.7-.12-57.29-.05A7.9,7.9,0,0,0,9.49,242a9.36,9.36,0,0,0-2.44,8.19,9,9,0,0,0,8.82,7.61H72.28ZM46.66,237.05q15.72,0,31.42,0c1,0,1.47-.13,1.39-1.27-.07-1,0-1.63-1.36-1.63-20.71,0-41.42,0-62.13.06a13.29,13.29,0,0,0-9.65,4.21,13.93,13.93,0,0,0-3.7,13.36A13.71,13.71,0,0,0,16,262.73c20.55.09,41.1,0,61.65,0,.36,0,.72,0,1.07,0a.69.69,0,0,0,.69-.54c.49-1.53,0-2.3-1.58-2.3H15.58a7.15,7.15,0,0,1-1.31,0A11.59,11.59,0,0,1,5.06,245.8,11.71,11.71,0,0,1,16.19,237C26.35,237.14,36.51,237.05,46.66,237.05Z" transform="translate(-0.16 -0.89)" fill="#fefde7"/>
    <path d="M317.92,251.81a15.24,15.24,0,0,1-1.66-3.78,10.16,10.16,0,0,1-.18-1.64c0-7.06,0-14.13,0-21.19,0-1-.28-1.27-1.27-1.26q-17.55,0-35.11,0c-.88,0-1.16.1-1.06,1.15.35,3.69.45,7.4.78,11.09.37,4,.71,8.08.94,12.14.11,2,.36,4,.45,6,0,.86.51.82,1.09.82,3.1,0,6.19,0,9.29,0,3.84,0,5.79,2,5.83,5.86,0,4.45-.16,3.9-3.87,3.9H221.63c-1.89,0-2-.08-2-1.93,0-.91.06-1.83,0-2.73-.27-3.42,2.55-5.08,5.12-5.1,3.22,0,6.43,0,9.64,0,.93,0,1.18-.24,1.24-1.19.23-3.65.61-7.29.9-10.94.2-2.64.3-5.28.5-7.92.26-3.45.57-6.9.9-10.35.05-.58-.11-.83-.69-.8h-83c-1.52,0-1.52,0-1.52,1.56,0,10.87-.08,21.74,0,32.61,0,3-3.28,6.84-6.87,6.81-13.25-.09-26.5,0-39.76,0a7.1,7.1,0,0,1-6.51-5.45,15.23,15.23,0,0,1-.25-2.94q0-25.29,0-50.59v-1.47c-1.74,1.22-3.34,2.29-5,3.24a41.5,41.5,0,0,1-13,4.63,37,37,0,0,1-6.93.62,42.31,42.31,0,0,1-11.21-1.53A40,40,0,0,1,48,203.28,38.89,38.89,0,0,1,37.06,188.4a43.5,43.5,0,0,1-3-10.2,45.52,45.52,0,0,1-.17-10.88,39.14,39.14,0,0,1,1.36-7.19,39.77,39.77,0,0,1,7.08-13.72,42.22,42.22,0,0,1,16.78-12.59,39.43,39.43,0,0,1,12.55-3,35.82,35.82,0,0,1,15.7,2,42.84,42.84,0,0,1,13,7.4,41.6,41.6,0,0,1,10.46,13.05,30.33,30.33,0,0,1,2.62,6.72c.26,1.12.7,1.66,2,1.6,2.45-.12,4.92-.07,7.38,0,.91,0,1.23-.29,1.12-1.16a5.73,5.73,0,0,1,0-.83V42.13a8.41,8.41,0,0,1,6.68-8.5,6.1,6.1,0,0,1,1.42-.12q22,0,44,0c1.14,0,1.46-.3,1.45-1.45-.05-7.61,0-15.23,0-22.85a8,8,0,0,1,7.1-8.14,23,23,0,0,1,3.31-.2h102c3.28,0,6,1.13,7.86,4A7,7,0,0,1,299,8.72c0,7.77,0,15.55,0,23.33,0,1.26.38,1.48,1.54,1.48,27.77,0,55.55,0,83.32-.06a8.54,8.54,0,0,1,8.51,8.6q-.06,39.45,0,78.92c0,1.55,0,1.55,1.53,1.55,5.12,0,10.24,0,15.36,0,1.12,0,1.47-.26,1.47-1.43-.05-9.92,0-19.84,0-29.76a8.52,8.52,0,0,1,8.59-8.64q63.63.11,127.25,0a8.25,8.25,0,0,1,8,8q0,54,0,108a8.19,8.19,0,0,1-7.23,7.94,41.57,41.57,0,0,1-4.85.19q-15.78,0-31.55,0c-1.09,0-1.39.3-1.38,1.39,0,12.7,0,25.4,0,38.09a7.58,7.58,0,0,1-1.22,4.49c-.49.72-.44,1.08.6,1.07,3.93,0,7.85,0,11.78,0,1.72,0,2.18.45,2.14,2.2a34.11,34.11,0,0,1-.21,5.8,6.3,6.3,0,0,1-6,5.09q-103.74,0-207.48,0a6.25,6.25,0,0,1-6-6c0-1.71,0-3.41,0-5.12,0-1.54.42-2,2-2h13Zm-83.56-66.66h80c.31,0,.63,0,.95,0,.55,0,.81-.19.78-.75,0-.32,0-.64,0-1q0-26.48,0-53a7.68,7.68,0,0,1,7.95-8c16,.1,32.06,0,48.08,0,.85,0,1.38,0,1.38-1.15q0-33.69,0-67.37a2,2,0,0,0-1.38-2,3.8,3.8,0,0,0-1.63-.23h-70c-1.53,0-1.53,0-1.53,1.55q0,38.08,0,76.17a13.4,13.4,0,0,1-.44,3.51,8.19,8.19,0,0,1-7.17,5.66H185.17a5.12,5.12,0,0,1-1.4-.18,8.49,8.49,0,0,1-6.26-8.48q0-37.74,0-75.46c0-2.77,0-2.77-2.81-2.77q-14.7,0-29.4,0c-2,0-2.78.76-2.78,2.77V160.3c0,1.52,0,1.53,1.56,1.52,2,0,4.06-.1,5.76,1.49a7.94,7.94,0,0,1,2.93,6.09c0,4.72,0,9.44,0,14.16,0,1.59,0,1.59,1.61,1.59Zm3.87-166.64q-28.62,0-57.25,0c-.9,0-1.34.11-1.34,1.19q0,55.41.05,110.81a6,6,0,0,0,6.07,6.12q52.31-.06,104.62,0a6.19,6.19,0,0,0,6.42-6.5V20c0-1.53,0-1.53-1.56-1.53Zm174.5,221.4H496.4c1.88,0,2.28-.4,2.28-2.31V208.33c0-1.75,0-1.75-1.78-1.75H418.82a6.5,6.5,0,0,1-1.53-.11c-4.38-1.14-6.66-4.2-6.68-8.76-.05-19.67,0-39.35,0-59,0-1.61,0-1.61-1.59-1.61H328.78c-1.93,0-2,.06-2,2v98.54c0,.24,0,.48,0,.72-.08,1,.52,1.36,1.32,1.53a5.88,5.88,0,0,0,1.19,0Zm69.73-140H414.39c-1.65,0-1.66,0-1.66,1.66V197.4c0,.2,0,.4,0,.59a6.46,6.46,0,0,0,6.55,6.49q63.13-.09,126.27,0a6.59,6.59,0,0,0,6.71-6.78q-.07-48.09,0-96.16c0-1.62,0-1.62-1.58-1.62ZM234.36,221.58q40.09,0,80.21,0c1.15,0,1.55-.21,1.54-1.48q-.09-15.7,0-31.42c0-1.16-.34-1.43-1.47-1.43q-80.2,0-160.42,0c-1.27,0-1.48.4-1.48,1.55,0,10.39,0,20.79,0,31.18,0,1.59,0,1.59,1.61,1.59ZM74.47,132.91c-9.89.46-18.77,3.59-26.16,10.42A37.12,37.12,0,0,0,35.91,170c-.9,23.64,17.22,39.72,36.25,40.61C96.29,211.75,112.5,193,113,172.76a37.49,37.49,0,0,0-10.57-27.58C94.84,137.24,85.4,133.45,74.47,132.91ZM412.74,252.05h88.91a5.88,5.88,0,0,0,5.64-5.79c-.11-9.33,0-18.65,0-28,0-3.53,0-7.07,0-10.6,0-.9-.29-1.17-1.16-1.13a36.48,36.48,0,0,1-4.05,0c-1-.06-1.27.28-1.26,1.27,0,6.66,0,13.33,0,20,0,3.46,0,6.91,0,10.36,0,1.82-.89,3.32-2.17,3.59a12.91,12.91,0,0,1-2.58.3q-83.43,0-166.87,0c-.36,0-.72,0-1.07,0a3.39,3.39,0,0,1-3.48-3.69v-100a3.13,3.13,0,0,1,3.47-3.45h36.42q22.38,0,44.75,0c1.06,0,1.36-.28,1.33-1.33q-.12-3.81,0-7.62c0-1-.27-1.33-1.33-1.33q-42.9,0-85.81,0a4.33,4.33,0,0,0-1.29.14c-2.71.83-4,2.7-4,6q0,57.42,0,114.86a6.16,6.16,0,0,0,6.34,6.39Q368.64,252,412.74,252.05ZM150.62,211.48q0-17.31,0-34.63c0-1.9.18-1.69-1.75-1.69H117.46c-2.44,0-2.51,0-2.76,2.3-.61,5.65-2.77,10.76-5.45,15.68a33.72,33.72,0,0,1-6.84,8.44,2.44,2.44,0,0,0-.85,2q0,21.36,0,42.72c0,1.5,0,1.5,1.55,1.5,15.35,0,30.71,0,46.06,0,1.13,0,1.46-.28,1.46-1.44C150.61,234.73,150.62,223.1,150.62,211.48ZM342,35.65q-20.83,0-41.66,0c-1.16,0-1.45.35-1.43,1.47.07,3.65,0,7.3,0,10.95,0,1.65,0,1.65,1.67,1.65q35.06,0,70.1,0c2.76,0,5,1.63,4.93,4.89-.09,22.22,0,44.43-.07,66.65,0,1,.23,1.37,1.31,1.35,4-.07,7.94-.08,11.91,0,1.15,0,1.35-.39,1.35-1.42q0-39.41,0-78.79a6.36,6.36,0,0,0-6.7-6.71ZM126.1,101.57v58.32c0,.31,0,.63,0,1,0,.71.3,1,1,1q6.26,0,12.5,0c.54,0,.82-.18.79-.76,0-.35,0-.71,0-1.07q0-52.84,0-105.68a4.47,4.47,0,0,1,.5-2.4,4.55,4.55,0,0,1,4.3-2.22q15.54,0,31.06,0c.95,0,1.32-.19,1.31-1.23-.06-3.89,0-7.77,0-11.66,0-.83-.15-1.19-1.1-1.19-14.71,0-29.43,0-44.15,0a5.84,5.84,0,0,0-5.07,2.81A8,8,0,0,0,126.11,43Q126.1,72.29,126.1,101.57Zm356.4-3.79h67.84c.31,0,.63,0,.95,0,.71.07,1-.22,1-1,0-1.74,0-3.49,0-5.23a6.52,6.52,0,0,0-6.69-6.72q-63.07.09-126.14,0c-.28,0-.56,0-.84,0A6.23,6.23,0,0,0,413,90a47,47,0,0,0-.21,6.16c0,1.62,0,1.62,1.58,1.62Zm-69.7,165H515.87a4.15,4.15,0,0,0,4.47-4.42v-2.62c0-1.53,0-1.53-1.56-1.53H428.92c-.64,0-1.17,0-1.58.72a8.84,8.84,0,0,1-8,4.5q-6.78.13-13.57,0a8.77,8.77,0,0,1-7.7-4.13,2.08,2.08,0,0,0-2.08-1.1q-44.62,0-89.26,0c-.28,0-.56,0-.84,0-.64-.05-.82.27-.81.86,0,.91,0,1.82,0,2.73,0,3.29,1.69,5,5,5ZM238.17,16.36h57.11c1.52,0,1.52,0,1.52-1.56,0-1.87,0-3.73,0-5.59a5.9,5.9,0,0,0-6-5.94q-52.59,0-105.18,0a6.22,6.22,0,0,0-6,6.07c0,1.87.1,3.74,0,5.59-.09,1.27.37,1.49,1.53,1.49Q209.67,16.33,238.17,16.36Zm19.94,239c6.42,0,12.85,0,19.27,0,1.18,0,1.5-.42,1.31-1.43a24.27,24.27,0,0,1-.24-2.95c-.12-2.32-.3-4.64-.49-6.95-.29-3.53-.62-7.06-.92-10.59-.25-2.91-.5-5.81-.7-8.72,0-.72-.37-.82-1-.82q-17.14,0-34.27,0c-.71,0-.93.21-1,.94-.17,2.24-.34,4.48-.48,6.72-.23,3.49-.64,7-.91,10.47-.21,2.63-.22,5.28-.54,7.9a38.23,38.23,0,0,1-.31,4c-.29,1.24-.17,1.39,1.08,1.39Zm-131.88-5.47c-7.81,0-15.63,0-23.44,0-.9,0-1.27.2-1.23,1.18.07,2,0,4,0,5.95.08,3.65,2.35,5.78,5.77,5.77,12.73-.06,25.46,0,38.19,0a5,5,0,0,0,5.07-5c0-2.18-.05-4.36,0-6.54,0-1.07-.3-1.33-1.34-1.33C141.62,249.93,133.92,249.91,126.23,249.91ZM258.1,262.76h33.78c2.82,0,2.82,0,2.77-2.81a2.32,2.32,0,0,0-2.45-2.42H224.51a2.52,2.52,0,0,0-2.7,2.76,9.55,9.55,0,0,1,0,1.07c-.18,1.16.32,1.43,1.45,1.43C234.86,262.75,246.48,262.76,258.1,262.76ZM132.91,173c5.44,0,10.87,0,16.31,0,1.17,0,1.54-.35,1.42-1.48-.09-.82,0-1.66,0-2.49a4.87,4.87,0,0,0-4.9-4.87H115.48c-.33,0-.91-.14-.93.25a8.26,8.26,0,0,0,.32,2.42c.19.66.87.41,1.35.41,6.91,0,13.81,0,20.71,0,.94,0,1.67.29,1.68,1.24s-.85.93-1.6.93H117.49c-2.35,0-2.29,0-2.37,2.3,0,1.1.36,1.3,1.37,1.29C122,173,127.44,173,132.91,173Zm279.73,81.18H401.21c-.33,0-.81-.2-.95.22s.33.59.57.83a7,7,0,0,0,5,2c4.48.06,9,.05,13.45,0a7,7,0,0,0,5.14-2.08c.23-.23.69-.43.48-.83s-.58-.16-.88-.16Z" transform="translate(-0.16 -0.89)" fill="#fefde7"/>
    <path d="M581.76,237.09V215.68c0-1.91.76-2.67,2.63-2.67,5.07,0,10.15,0,15.23,0a1.69,1.69,0,0,0,1.69-.94c2.69-4.36,9.08-3.6,10.91.22a1.23,1.23,0,0,0,1.33.72c4.68,0,9.36,0,14,0,1.69,0,2.49.81,2.5,2.55,0,1.94.06,3.89,0,5.83,0,1,.27,1.39,1.22,1.59a16,16,0,0,1,10.17,7.22c3.83,5.72,3.15,14.15-1.21,19.51a16,16,0,0,1-9.53,5.89c-.64.13-.6.49-.62.93a24,24,0,0,1-.2,3.78,6,6,0,0,1-5.78,4.83c-12,0-24-.1-35.92.07a6.59,6.59,0,0,1-6.44-6.47C581.78,251.52,581.76,244.31,581.76,237.09Zm2.38.78v20.82c0,2.83,1.48,4.31,4.31,4.31,11.55,0,23.09-.06,34.64,0a4.45,4.45,0,0,0,4.85-4.83c0-14,0-27.93,0-41.9,0-.84-.16-1.19-1.1-1.18-4.44.05-8.89,0-13.33,0-.85,0-1.09.28-1.07,1.1,0,2.58,0,5.15,0,7.73,0,3.24,0,3.24,3.18,3.33a3.85,3.85,0,0,1,3.71,3.63q.07,5.52,0,11.06a4.07,4.07,0,0,1-3.8,3.87c-2.62.05-5.24.06-7.85,0a4.06,4.06,0,0,1-3.81-4V231.16a3.84,3.84,0,0,1,1.72-3.2,4.73,4.73,0,0,1,3.42-.65c1.08.09,1.33-.31,1.31-1.34-.06-3.17-.06-6.35,0-9.52,0-1.06-.29-1.33-1.34-1.32q-11.78.06-23.56,0c-1,0-1.35.24-1.34,1.31C584.17,223.58,584.14,230.73,584.14,237.87Zm21.91-1.34c0,1.58,0,3.17,0,4.76s.64,2.41,2.33,2.42q3.27,0,6.54,0a2.15,2.15,0,0,0,2.31-2.3c0-3.29,0-6.58,0-9.88,0-1.41-.7-2.08-2.14-2.09q-3.45,0-6.9,0c-1.48,0-2.13.69-2.14,2.21S606.05,234.9,606.05,236.53Zm24,14.55a9.53,9.53,0,0,1,0,1.31c-.11.89.22,1.11,1,.85a13.66,13.66,0,0,0,4.58-2.35c4.78-3.77,6.8-8.58,5.79-14.59A14.41,14.41,0,0,0,631,225.18c-.67-.16-1-.12-1,.73a13.92,13.92,0,0,1,0,2.5c-.05.67.23,1,.82,1.21a10.63,10.63,0,0,1,5.29,4.51c3,5,.6,12.28-4.86,14.27-1.05.38-1.38.85-1.24,1.85A5.73,5.73,0,0,1,630.09,251.08Zm0-12c0,2.18,0,4.35,0,6.53,0,.69.07.95.83.57a7.5,7.5,0,0,0,4.38-7.05A7.6,7.6,0,0,0,630.9,232c-.77-.4-.83-.1-.82.57C630.11,234.72,630.09,236.9,630.09,239.08Z" transform="translate(-0.16 -0.89)" fill="#fefde7"/>
    <path d="M553.55,264.91c-5.11,0-10.23,0-15.34,0-.9,0-1.22-.2-1.23-1.18,0-4.82,2-8.59,5.19-12.14,4.41-4.88,13.3-5.94,19-2.76a17,17,0,0,1,8.66,11.84,22.69,22.69,0,0,1,.24,3.18c.06.87-.31,1.06-1.1,1.06C563.85,264.89,558.7,264.91,553.55,264.91Zm-.12-2.15h13.43c.75,0,1,0,.94-1-.4-5.36-6.29-11.87-12.3-12.41-.62-.05-.84-.08-.91.6a1.09,1.09,0,0,1-1.16,1.09,1,1,0,0,1-1-1.14c0-.47-.1-.71-.69-.6a14.59,14.59,0,0,0-5.85,2.26,15.47,15.47,0,0,0-6.67,9.95c-.23,1.13.13,1.28,1.1,1.28C544.72,262.74,549.07,262.76,553.43,262.76Z" transform="translate(-0.16 -0.89)" fill="#fefde7"/>
    <path d="M217.58,103.5H202.72c-.28,0-.55,0-.83,0a1.07,1.07,0,0,1,0-2.13c.83,0,1.67,0,2.5,0h28.89c.71,0,1.14.33,1.14,1.06a1,1,0,0,1-1.13,1.07h-15.7Z" transform="translate(-0.16 -0.89)" fill="#fefde7"/>
    <path d="M245.84,82.78H231.09c-.27,0-.55,0-.83,0a1,1,0,0,1-1.07-1c-.05-.67.4-.92.92-1.05a4.11,4.11,0,0,1,1.06-.07h29.61a5.77,5.77,0,0,1,.72,0c.65.1,1.29.26,1.24,1.12s-.59,1-1.32,1Z" transform="translate(-0.16 -0.89)" fill="#fefde7"/>
    <path d="M236.92,51.6c-4.63,0-9.27,0-13.91,0-.84,0-1.66-.09-1.61-1.07s.84-1.1,1.69-1.09H250.8a1.51,1.51,0,0,1,1.22.34c.32.32.62.65.43,1.14a1,1,0,0,1-1,.67H236.92Z" transform="translate(-0.16 -0.89)" fill="#fefde7"/>
    <path d="M213.65,82.78c-3.77,0-7.54,0-11.3,0-.69,0-1.53.21-1.5-1s.78-1.17,1.57-1.17c3.45,0,6.9,0,10.34,0,4,0,8,0,12,0a2.24,2.24,0,0,1,1.47.35,1.13,1.13,0,0,1,.25,1.31c-.14.56-.65.48-1.08.48C221.5,82.79,217.57,82.78,213.65,82.78Z" transform="translate(-0.16 -0.89)" fill="#fefde7"/>
    <path d="M213.72,72.31c-3.76,0-7.52,0-11.29,0-.81,0-1.59,0-1.56-1.12s.78-1,1.54-1q11.29,0,22.58,0c.81,0,1.59,0,1.56,1.13s-.78,1-1.54,1C221.25,72.3,217.49,72.31,213.72,72.31Z" transform="translate(-0.16 -0.89)" fill="#fefde7"/>
    <path d="M252.13,41.12h-8.91c-.78,0-1.61,0-1.64-1.05s.77-1.11,1.58-1.1h18.06c.76,0,1.5.05,1.51,1s-.76,1.11-1.57,1.11Z" transform="translate(-0.16 -0.89)" fill="#fefde7"/>
    <path d="M230.43,93.26h-7.59c-.82,0-1.45-.35-1.43-1.21,0-.57.43-1,1.13-.94q8,0,15.91,0c.77,0,1.19.45,1.14,1.06s-.65,1.1-1.44,1.09C235.58,93.25,233,93.26,230.43,93.26Z" transform="translate(-0.16 -0.89)" fill="#fefde7"/>
    <path d="M238.17,72.31c-2.5,0-5,0-7.48,0-.79,0-1.49-.09-1.49-1.08s.71-1.07,1.49-1.07q7.55,0,15.09,0c.78,0,1.49.1,1.48,1.08s-.71,1.08-1.49,1.07C243.24,72.3,240.7,72.31,238.17,72.31Z" transform="translate(-0.16 -0.89)" fill="#fefde7"/>
    <path d="M209.79,51.6h-7.72c-.63,0-1.21,0-1.22-.88s.35-1.26,1.2-1.26h15.43c.84,0,1.43.42,1.42,1.24s-.71.91-1.39.9Z" transform="translate(-0.16 -0.89)" fill="#fefde7"/>
    <path d="M209.85,91.12h7.62c.72,0,1.48.07,1.43,1s-.67,1.18-1.5,1.17c-5,0-10,0-15,0a2.31,2.31,0,0,1-.59,0,1.11,1.11,0,0,1-1-1.27c.05-.8.55-.84,1.15-.84Z" transform="translate(-0.16 -0.89)" fill="#fefde7"/>
    <path d="M208.36,114c-2,0-4,0-6.07,0-.64,0-1.42.19-1.44-.89s.7-1.23,1.5-1.24c1.51,0,3,0,4.52,0h7.5a4.21,4.21,0,0,1,.71,0c.7.1,1.22.5,1.21,1.22s-.6.92-1.27.91C212.8,114,210.58,114,208.36,114Z" transform="translate(-0.16 -0.89)" fill="#fefde7"/>
    <path d="M231.49,39c2,0,4,0,6.06,0,.8,0,1.45.27,1.46,1s-.65,1.13-1.49,1.12c-4,0-8,0-12,0a1.37,1.37,0,0,1-1.41-.66,1,1,0,0,1,.09-1c.24-.49.67-.48,1.12-.48Z" transform="translate(-0.16 -0.89)" fill="#fefde7"/>
    <path d="M261.28,51.6c-1.67,0-3.33,0-5,0-.78,0-1.31-.29-1.31-1a1.15,1.15,0,0,1,1.27-1.13h10.47A1.12,1.12,0,0,1,268,50.61c0,.84-.62,1-1.33,1Z" transform="translate(-0.16 -0.89)" fill="#fefde7"/>
    <path d="M222.73,62.07c-1.67,0-3.33,0-5,0-.65,0-1.3-.13-1.4-1s.17-1.18,1-1.17c3.49,0,7,0,10.46,0,.71,0,1.28.17,1.33,1s-.63,1.12-1.33,1.14C226.13,62.1,224.43,62.07,222.73,62.07Z" transform="translate(-0.16 -0.89)" fill="#fefde7"/>
    <path d="M207.22,59.93h5.11c.77,0,1.36.18,1.37,1.08s-.66,1-1.31,1.05c-3.4,0-6.81,0-10.21,0-.79,0-1.38-.32-1.33-1.29s.76-.83,1.38-.84Z" transform="translate(-0.16 -0.89)" fill="#fefde7"/>
    <path d="M247.25,91.12c1.31,0,2.62,0,3.93,0,.66,0,1.29.15,1.29.9s-.58,1.25-1.42,1.25h-6.43c-.43,0-.87,0-1.3,0a1.21,1.21,0,0,1-1.24-1.2c0-.74.57-.94,1.25-.94C244.64,91.13,246,91.12,247.25,91.12Z" transform="translate(-0.16 -0.89)" fill="#fefde7"/>
    <path d="M217.07,39c1.07,0,2.15,0,3.21,0,.75,0,1.19.34,1.22,1a1.09,1.09,0,0,1-1.13,1.13c-2.3,0-4.6,0-6.89,0A1.11,1.11,0,0,1,212.35,40a1,1,0,0,1,1.16-1c1.19,0,2.38,0,3.56,0Z" transform="translate(-0.16 -0.89)" fill="#fefde7"/>
    <path d="M205.38,39c1.07,0,2.13,0,3.2,0,.66,0,1.24.15,1.29.9a1.08,1.08,0,0,1-1.16,1.22c-2.29,0-4.59,0-6.88,0a.94.94,0,0,1-1-1.11,1,1,0,0,1,1.07-1C203.08,39,204.23,39,205.38,39Z" transform="translate(-0.16 -0.89)" fill="#fefde7"/>
    <path d="M235.68,59.93c.91,0,1.82,0,2.73,0a1,1,0,0,1,1.14.8,1,1,0,0,1-.77,1.18,2.62,2.62,0,0,1-.92.16c-1.5,0-3,0-4.51,0-.73,0-1.52-.08-1.53-1.07s.71-1.09,1.49-1.07Z" transform="translate(-0.16 -0.89)" fill="#fefde7"/>
    <path d="M524.15,139.9c0-3.08,0-6.16,0-9.24a1.18,1.18,0,0,0-.71-1.11,3.07,3.07,0,0,1-1.39-3.47,3.38,3.38,0,0,1,3-2.35,3.12,3.12,0,0,1,3,2.1,3,3,0,0,1-1,3.59,1.6,1.6,0,0,0-.73,1.5c0,5.08,0,10.16,0,15.23,0,1,.37,1.19,1.25,1.17,1.78,0,1.62-.2,1.63,1.67s0,3.57,0,5.35c0,1-.32,1.34-1.31,1.31-1.57,0-1.57,0-1.57,1.62,0,5,0,10,0,15a1.77,1.77,0,0,0,.77,1.7,3.17,3.17,0,0,1,1,3.64,3.61,3.61,0,0,1-3.07,2.06,4,4,0,0,1-2.92-2.35,3.31,3.31,0,0,1,1.45-3.6c.34-.22.66-.38.66-.88,0-3.44,0-6.87-.2-10.36-.5.95-1,1.93-1.52,2.84a26.86,26.86,0,0,1-18,12.61c-.89.19-1,.52-1,1.31,0,2.11,0,2.11-2.14,2.11-1.71,0-3.42,0-5.12,0-.73,0-1.07-.14-1.07-1,0-2.22-.07-2.21-2.18-2.75a26.75,26.75,0,0,1-17.09-12.95A25.46,25.46,0,0,1,473,157c-.19-.92-.5-1.55-1.61-1.33a9.33,9.33,0,0,1-1.06,0c-.67.05-.91-.22-.91-.89,0-2.18,0-4.37,0-6.55,0-.77.34-.9,1-.91,2.09,0,2.08-.06,2.57-2.09a29.51,29.51,0,0,1,5.4-11.1,25.84,25.84,0,0,1,15.92-9.67,1.15,1.15,0,0,0,1.09-1.35c-.08-2.42-.22-2.2,2.25-2.2,1.7,0,3.41,0,5.11,0,.74,0,.95.26,1,1,.05,2.38.08,2.39,2.39,3a25.51,25.51,0,0,1,13.09,7.92A41.59,41.59,0,0,1,524.15,139.9Zm-20,35.7.12,0a24.83,24.83,0,0,0,13-7.2,23.89,23.89,0,0,0,5.91-10.92c.46-1.83.71-1.89-1.36-1.81-.88,0-1.2-.31-1.17-1.18,0-1.67,0-3.33,0-5,0-2.1,0-2.13,2.11-2.14.75,0,.92-.16.77-.94A25.67,25.67,0,0,0,515,132a21.87,21.87,0,0,0-9.87-5c-1.46-.35-1.5-.35-1.48,1.1,0,.83-.24,1.11-1.08,1.08-1.86-.05-3.73,0-5.59,0s-1.72.11-1.66-1.65c0-.77-.19-.92-.94-.76a23.42,23.42,0,0,0-12.54,6.91,25.29,25.29,0,0,0-6.57,11.88c-.37,1.67-.39,1.71,1.37,1.69.86,0,1.08.3,1.06,1.11q-.06,3,0,6.07c0,.87-.29,1.2-1.17,1.19-1.48,0-1.49,0-1.21,1.46a7.25,7.25,0,0,0,.26.91,25.57,25.57,0,0,0,6.08,10.58,24.76,24.76,0,0,0,11.89,6.77c1.47.35,1.53.29,1.5-1.27,0-.81.2-1.13,1.06-1.11,2.07.06,4.13.07,6.19,0,.93,0,1.21.32,1.1,1.18,0,.27,0,.55,0,.83C503.43,175.45,503.64,175.66,504.1,175.6Zm20.77-22.11c2.14,0,2.15,0,2.13-2,0-2.38.33-2-2.08-2s-2.18-.34-2.19,1.93C522.71,153.49,522.72,153.49,524.87,153.49Zm-51.4,0c2.11,0,2.13,0,2.11-2,0-2.33.31-2-2-2s-2-.33-2,2.07C471.54,153.76,471.25,153.46,473.47,153.49ZM501.53,125c0-2.26.3-2-1.91-2s-2.14,0-2.13,2.12-.27,1.92,2,1.92C501.85,127.05,501.5,127.39,501.53,125Zm-.23,52.12c0-2.25.28-1.95-1.93-2h-.12c-2.31,0-2-.3-2,2s-.31,2,2,2S501.26,179.52,501.3,177.13Z" transform="translate(-0.16 -0.89)" fill="#fefde7"/>
    <path d="M436.07,127.76c0-1.71,0-3.41,0-5.12a3.82,3.82,0,0,1,3.89-3.9c3.41,0,6.82,0,10.23,0a4,4,0,0,1,3.95,3.82q.09,5.22,0,10.46a4.19,4.19,0,0,1-4.06,4c-3.29,0-6.59,0-9.88,0a4.17,4.17,0,0,1-4.13-4.29C436.06,131.09,436.07,129.43,436.07,127.76Zm2.14,0v4.63a2.19,2.19,0,0,0,2.45,2.48q4.45,0,8.91,0A2.2,2.2,0,0,0,452,132.4c0-3.09,0-6.17,0-9.26,0-1.59-.65-2.26-2.2-2.26h-9.62a1.74,1.74,0,0,0-2,1.94C438.2,124.48,438.21,126.15,438.21,127.81Z" transform="translate(-0.16 -0.89)" fill="#fefde7"/>
    <path d="M436.07,174.64c0-1.59,0-3.18,0-4.76a3.91,3.91,0,0,1,4.19-4.25h9.87a4.07,4.07,0,0,1,4,3.89c0,3.37.05,6.74,0,10.11a4.2,4.2,0,0,1-4.14,4.08c-3.25,0-6.5,0-9.75,0a4,4,0,0,1-4.18-4.32C436.06,177.81,436.07,176.22,436.07,174.64Zm2.14,0c0,1.55,0,3.1,0,4.64s.67,2.32,2.3,2.34c3.06,0,6.11,0,9.16,0a2.15,2.15,0,0,0,2.34-2.27c0-3.17,0-6.35,0-9.52a1.85,1.85,0,0,0-2-2q-4.87,0-9.75,0a1.85,1.85,0,0,0-2.05,2.07C438.19,171.43,438.21,173,438.21,174.6Z" transform="translate(-0.16 -0.89)" fill="#fefde7"/>
    <path d="M445.09,160.16h-5a3.86,3.86,0,0,1-4-4q0-4.89,0-9.76a4,4,0,0,1,4.09-4.29c3.29-.06,6.58-.05,9.88,0a4.22,4.22,0,0,1,4.11,4.12c0,3.33,0,6.66,0,10a4.06,4.06,0,0,1-4.06,4ZM445,158c1.7,0,3.4,0,5.11,0a1.8,1.8,0,0,0,1.93-1.94q0-4.86,0-9.74a2.08,2.08,0,0,0-2-2.11q-4.86-.06-9.74,0a1.84,1.84,0,0,0-2,1.86c0,3.37,0,6.73,0,10.1a1.77,1.77,0,0,0,2,1.83C441.8,158,443.38,158,445,158Z" transform="translate(-0.16 -0.89)" fill="#fefde7"/>
    <path d="M252.52,206a5.65,5.65,0,0,1,5.78-5.85,5.85,5.85,0,0,1-.06,11.69C255.5,212,252.11,209,252.52,206Zm2.14-.1a3.47,3.47,0,0,0,3.59,3.79,3.69,3.69,0,1,0,.08-7.38A3.42,3.42,0,0,0,254.66,205.88Z" transform="translate(-0.16 -0.89)" fill="#fefde7"/>
    <path d="M68.73,188.72c-.58,0-1-.69-.56-2,.72-2.26,1.49-4.5,2.23-6.75q3.93-11.88,7.84-23.75c.19-.59.43-1.1,1.14-1.18a1.23,1.23,0,0,1,1.17.65c.32.41.14.83,0,1.24q-3.1,9.45-6.22,18.9c-1.24,3.75-2.44,7.51-3.7,11.25C70.4,187.83,70.29,188.75,68.73,188.72Z" transform="translate(-0.16 -0.89)" fill="#fefde7"/>
    <path d="M51.58,172c.09-1.08,1-1.57,1.68-2.18,2.4-2.17,4.91-4.22,7.27-6.43.79-.75,1.54-1.56,2.35-2.31a1.29,1.29,0,0,1,1.8-.26c.66.52.56,1.19,0,1.88a29.77,29.77,0,0,1-3.79,3.57c-1.86,1.76-3.81,3.43-5.74,5.12-.58.51-.47.83.09,1.31,1.81,1.52,3.56,3.11,5.34,4.67l3.66,3.2a4.25,4.25,0,0,1,.66.68,1.08,1.08,0,0,1-.15,1.5c-.43.46-.89.67-1.44.21-1-.84-2-1.66-3-2.52-2.78-2.45-5.55-4.93-8.33-7.39A1.18,1.18,0,0,1,51.58,172Z" transform="translate(-0.16 -0.89)" fill="#fefde7"/>
    <path d="M85,160.63c1.25.34,2,1.4,2.82,2.25,2,2,4.16,3.75,6.24,5.64.9.82,1.84,1.61,2.75,2.43a1.16,1.16,0,0,1,0,1.93c-1.27,1.19-2.53,2.4-3.83,3.56-1.79,1.6-3.62,3.17-5.43,4.75-.63.55-1.25,1.1-1.89,1.63s-1.1.59-1.63-.08a1.1,1.1,0,0,1,.09-1.68c1.78-1.63,3.57-3.24,5.36-4.85,1.44-1.29,2.88-2.59,4.35-3.84.56-.48.09-.7-.16-.92-1.66-1.52-3.34-3-5-4.52-1.51-1.34-3-2.64-4.53-4a1.44,1.44,0,0,1-.28-1.75A1,1,0,0,1,85,160.63Z" transform="translate(-0.16 -0.89)" fill="#fefde7"/>
    <path d="M119.91,211.26c.39,2.43-2.41,5.05-4.83,4.89-2.86-.2-4.93-2.06-4.93-4.83a5,5,0,0,1,5-5A4.65,4.65,0,0,1,119.91,211.26Zm-2.14.06a2.6,2.6,0,0,0-2.74-2.84,2.71,2.71,0,0,0-2.73,2.68A2.57,2.57,0,0,0,115,214,2.54,2.54,0,0,0,117.77,211.32Z" transform="translate(-0.16 -0.89)" fill="#fefde7"/>
    <path d="M133.15,206.58c-2.57,0-5.15,0-7.73,0-.73,0-1.36-.16-1.35-.94a1.19,1.19,0,0,1,1.32-1.22h15.46c.78,0,1.38.39,1.37,1.16s-.57,1-1.34,1C138.31,206.56,135.73,206.58,133.15,206.58Z" transform="translate(-0.16 -0.89)" fill="#fefde7"/>
    <path d="M130.51,212.29c-1.71,0-3.41,0-5.11,0-.69,0-1.38-.21-1.33-1a1.22,1.22,0,0,1,1.4-1.15c3.36,0,6.73,0,10.09,0a1.8,1.8,0,0,1,.47,0c.55.16,1.08.36,1,1.1s-.51,1-1.2,1Z" transform="translate(-0.16 -0.89)" fill="#fefde7"/>
    <path d="M128.12,215.87h2.62a1,1,0,0,1,1.06,1,1,1,0,0,1-1.09,1.11h-5.36c-.73,0-1.32-.42-1.31-1.08s.6-1.06,1.34-1.06Z" transform="translate(-0.16 -0.89)" fill="#fefde7"/>
    <path d="M436.07,91.27a2.19,2.19,0,0,1,2.32-2.3,2.38,2.38,0,1,1,0,4.76A2.22,2.22,0,0,1,436.07,91.27Z" transform="translate(-0.16 -0.89)" fill="#fefde7"/>
    <path d="M430.64,93.73a2.57,2.57,0,0,1-2.43-2.31A2.43,2.43,0,0,1,430.58,89,2.34,2.34,0,0,1,433,91.26,2.42,2.42,0,0,1,430.64,93.73Z" transform="translate(-0.16 -0.89)" fill="#fefde7"/>
    <path d="M422.85,89a2.38,2.38,0,1,1,0,4.76,2.23,2.23,0,0,1-2.3-2.42A2.21,2.21,0,0,1,422.85,89Z" transform="translate(-0.16 -0.89)" fill="#fefde7"/>
    <path d="M192.05,9.55a2.61,2.61,0,0,1-2.24,2.5,2.65,2.65,0,0,1-2.52-2.49,2.27,2.27,0,0,1,2.4-2.24A2.2,2.2,0,0,1,192.05,9.55Z" transform="translate(-0.16 -0.89)" fill="#fefde7"/>
    <path d="M205.16,7.32a2.19,2.19,0,0,1,2.36,2.23,2.61,2.61,0,0,1-2.23,2.5,2.65,2.65,0,0,1-2.53-2.49A2.28,2.28,0,0,1,205.16,7.32Z" transform="translate(-0.16 -0.89)" fill="#fefde7"/>
    <path d="M195.14,9.59a2.19,2.19,0,0,1,2.43-2.27,2.24,2.24,0,0,1,2.3,2.32,2.75,2.75,0,0,1-2.5,2.41A2.61,2.61,0,0,1,195.14,9.59Z" transform="translate(-0.16 -0.89)" fill="#fefde7"/>
    <path d="M129.2,256.24a2.9,2.9,0,0,1-2.87,2.95,3,3,0,1,1,0-5.95A2.9,2.9,0,0,1,129.2,256.24Z" transform="translate(-0.16 -0.89)" fill="#fefde7"/>
</svg>