<svg id="codeSnippet" data-name="codeSnippet" 
    xmlns="http://www.w3.org/2000/svg" viewBox="0 0 616.21 548.2">
    <title>Code Snippet</title>
    <path d="M373,1a125.58,125.58,0,0,0,21.16,6.18c9.08,2,11.4,5.55,8.86,14.4q-16.65,58.1-33.15,116.25-13.46,47.11-27,94.22-15.51,54.29-31,108.6-12.44,43.53-25,87.05-14.55,50.94-29,101.9c-1.23,4.31-2.71,8.55-3.85,12.88-.78,3-2.84,4.76-5.06,6.52h-4c-7.8-3.26-16.2-4.54-24.19-7.17-6.08-2-8.06-5.67-6.3-11.82Q234,461.9,253.56,393.78c17-59.44,33.74-118.94,50.86-178.34,4.5-15.58,8.91-31.19,13.75-46.68,6.71-21.51,11.72-43.55,18.24-65.12C341.1,88.13,345.39,72.5,350,57c4.88-16.32,9.29-32.81,13.69-49.28.9-3.4,3-4.87,5.27-6.7Z" transform="translate(-0.89 -0.9)" fill="#000000"/>
    <path d="M433,386c5.31-6.7,12.59-11.21,18.89-16.81,9.51-8.48,19.45-16.49,29.17-24.74,11.74-10,23.43-20,35.18-30q15.35-13,30.75-25.95c4.18-3.52,8.32-7.09,12.57-10.53,2.59-2.09,2.52-3.81,0-5.93-9.4-7.87-18.71-15.84-28.07-23.76q-15.16-12.84-30.37-25.64c-12.27-10.35-24.79-20.44-36.77-31.13C454,182.25,442.61,174.13,433,164a6,6,0,0,1,0-5.05c.66-4,4.38-5.69,6.53-8.54,4-5.28,8.79-9.92,13.31-14.77,2.88-3.09,5.82-3.19,9.09-.3,10.3,9.1,20.72,18.06,31.06,27.11q20.17,17.67,40.31,35.4c9.93,8.79,19.7,17.75,29.64,26.51,12.67,11.17,25.47,22.19,38.16,33.32,5.36,4.7,10.6,9.52,15.9,14.29v6q-14.71,13-29.44,25.94c-12.82,11.24-25.71,22.42-38.52,33.67-9.21,8.09-18.32,16.29-27.53,24.38-13.17,11.6-26.41,23.12-39.59,34.72-6.59,5.8-13.17,11.61-19.62,17.57-3.05,2.81-6.07,3.64-9.07.39-6.73-7.31-13.3-14.77-19.91-22.2-.28-.32-.22-1-.32-1.43A6,6,0,0,1,433,386Z" transform="translate(-0.89 -0.9)" fill="#000000"/>
    <path d="M185,391c-1.17,4.51-5.52,6.44-8.08,9.86-3.56,4.76-7.76,9-11.79,13.44-2.86,3.13-5.82,3.17-9.07.27-11-9.8-22.11-19.5-33.18-29.22q-20-17.53-39.95-35.06C73.49,342,64.14,333.57,54.7,325.24q-20.48-18.09-41-36.1L1,278v-6c3.39-.15,4.08-3.59,6.17-5.31,8-6.56,15.66-13.46,23.35-20.36,4.23-3.8,8.45-7.75,12.92-11.37,4-3.25,7.88-6.84,11.81-10.27,7.42-6.48,14-14,22.29-19.4,3.67-2.35,6.11-5.94,9.27-8.72,4-3.49,8.89-6.11,11.94-10.7,2.1-3.16,5.75-4.89,8.57-7.07,4.93-3.82,8.68-8.8,13.89-12.38,4-2.76,7.72-6.5,11.44-9.93,4.53-4.18,8.78-8.65,13.81-12.29,4.1-3,6.82-7.53,11.56-9.89,1.87-.93,3.1-1.65,4.78,0,6.31,6.17,13.06,12,17.71,19.6,1.22,2,4.06,2.45,4.49,5.08a5.93,5.93,0,0,1,0,5c-5.29,6.74-12.59,11.23-18.89,16.84-9.64,8.6-19.68,16.76-29.55,25.1s-20,16.85-30,25.32S86.89,248.08,77,256.46c-5.43,4.61-10.81,9.3-16.42,13.68s-5.31,5,.06,9.48S71,288.62,76.31,293C82,297.61,87.45,302.55,93,307.39s10.75,10.05,16.63,14.38c7.84,5.76,14.78,12.53,22.3,18.63,10.08,8.19,19.89,16.71,29.82,25.08,5.78,4.87,11.61,9.66,17.33,14.6,2.12,1.82,4,3.95,5.94,5.93A6,6,0,0,1,185,391Z" transform="translate(-0.89 -0.9)" fill="#000000"/>
</svg>