<svg id="f974f997-1735-4a12-a960-388afb498d15" data-name="Layer 1" 
    xmlns="http://www.w3.org/2000/svg" viewBox="0 0 720.21 720.21">
    <title>c#</title>
    <path d="M3194,361c0-45.16.11-90.31-.05-135.47-.07-23,10.14-40.09,29.58-51.41,26.89-15.67,54.17-30.66,81.31-45.91q79.88-44.88,159.77-89.76c20.92-11.77,41.73-11.83,62.66-.07q119.47,67.19,239,134.3c21.73,12.2,32.5,30.88,32.52,55.63q.14,132.72,0,265.45c0,24.74-10.8,43.41-32.54,55.61q-119.31,67-238.55,134.06c-9.19,5.17-19,8.53-29.3,9.13-12,.69-23.29-3.12-33.79-9l-202.86-114q-18.29-10.28-36.57-20.54c-16.48-9.24-27-22.87-30.56-41.59a43.82,43.82,0,0,1-.58-7.94Q3194,430.22,3194,361Z" transform="translate(-3135.89 -0.89)" fill="#0079fe"/>
    <path d="M3500.12,188.08c50.84,1.47,95.69,22.59,130.51,64.67,2.39,2.89,2.5,4-1,6-18.69,10.57-37.23,21.4-55.75,32.26-2.51,1.48-3.92,1.49-6.23-.72-29.34-28.1-63.93-37.52-102.59-24.95s-61.56,40.32-68.6,80.3c-9.8,55.7,32.88,110.54,89.17,115.55,32,2.84,59.33-7.23,82.16-29.65,2.07-2,3.34-2.24,5.82-.78q28.2,16.56,56.6,32.77c2.81,1.6,3,2.51.94,5-31.45,38.4-71.69,60.8-121.26,64.46-88.73,6.55-165-51.3-183.3-138.12-19.76-93.49,45.1-188.52,139.19-204A215.33,215.33,0,0,1,3500.12,188.08Z" transform="translate(-3135.89 -0.89)" fill="#fefefe"/>
    <path d="M3668.86,304.18c.33,3.84-1.94,9.82.82,12.73s8.84.84,13.45.89,10.67,2,13.53-.75c3.13-3,.62-9.16,1-13.91.4-4.58-2.06-10.69,1-13.33,2.66-2.25,8.57-.82,13-.77,4.63,0,10.68-2,13.52.75,3.11,3,.62,9.13,1,13.88.39,4.59-2,10.52,1,13.42,2.78,2.62,8.59.62,13.06.75,3.49.1,7,.19,10.49,0,3.06-.19,4.46.48,4.32,4-.28,7.16-.18,14.33,0,21.5,0,2.62-.83,3.48-3.43,3.43-7.17-.14-14.34.07-21.5-.11-3-.07-4.13.67-4,3.88.23,7,.24,14,0,21-.11,3.22,1.07,3.94,4,3.87,7-.18,14,.08,21-.12,3.08-.09,4,.88,3.95,3.95-.21,7-.27,14,0,21,.14,3.54-1.3,4.09-4.33,4-6.83-.19-13.67.11-20.5-.13-3.37-.12-4.27,1-4.16,4.27.23,7,0,14,.13,21,.06,2.78-.7,3.8-3.61,3.72-7.16-.19-14.34-.18-21.5,0-2.88.07-3.7-.9-3.63-3.71.18-7.16-.05-14.33.11-21.49.07-2.77-.71-3.84-3.62-3.78q-11,.26-22,0c-2.75-.06-3.34,1.05-3.3,3.52.12,7.34-.06,14.67.1,22,0,2.62-.74,3.49-3.38,3.44-7.5-.15-15-.13-22.5,0-2.42,0-3.13-.8-3.09-3.16.14-6.83-.32-13.69.18-20.49.34-4.74-1.43-5.55-5.6-5.34-6.65.33-13.33,0-20,.13-2.53.05-3.52-.64-3.46-3.35.17-7.32.21-14.66,0-22-.09-3.06,1.18-3.61,3.81-3.57,7.16.11,14.33-.08,21.5.1,2.79.06,3.76-.74,3.68-3.63q-.29-10.74,0-21.49c.08-2.9-.91-3.68-3.69-3.61-7,.17-14-.06-21,.1-3,.07-4.48-.52-4.32-4.09.31-7,.26-14,0-21-.11-3.2,1-4,4-3.86,6.66.19,13.33-.14,20,.14,3.74.15,5.31-.63,5.07-4.84-.4-6.8,0-13.66-.17-20.49-.08-2.82.74-3.74,3.61-3.67,7.33.18,14.67.16,22,0,2.65-.05,3.5.83,3.36,3.45C3668.71,296.05,3668.86,299.73,3668.86,304.18Z" transform="translate(-3135.89 -0.89)" fill="#fefefe"/>
    <path d="M3683.38,346.69c3.67,0,7.34.13,11,0,2.66-.12,3.41.93,3.36,3.49q-.21,11,0,22c0,2.37-.73,3.24-3.13,3.21q-11.49-.15-23,0c-2.25,0-2.81-.9-2.79-3,.08-7.49.15-15,0-22.48-.06-2.85,1.21-3.31,3.59-3.22C3676.05,346.79,3679.72,346.69,3683.38,346.69Z" transform="translate(-3135.89 -0.89)" fill="#007afe"/>
</svg>