<svg xmlns="http://www.w3.org/2000/svg" version="1.1" id="Layer_1" x="0" y="0" viewBox="0 0 300 49.2" xml:space="preserve">
    <style>.st0{fill:#001648}.st1{fill:#ee3124}</style>
    <path class="st0" d="M292 26.3l7.2-9h-3.3l-6.8 8.9V12.1H286v24.4h3.1v-9.9l7.3 9.9h3.6zM279.1 36.5V22.7c0-1.8-.7-3.7-4-3.7-1.8 0-2.6.2-3.6.7v16.8h-3.1V18.3c1.7-.8 3.9-1.4 7-1.4 5.3 0 6.9 2.9 6.9 5.7v13.8c-.1.1-3.2.1-3.2.1zM258.2 36.8c-5 0-7.3-2.2-7.3-5.6 0-5.1 4.8-6.6 10.7-7.2v-1.2c0-2.9-1.8-3.8-4.2-3.8-1.8 0-3.6.7-4.6 1.2l-.7-1.8c1.1-.6 3.2-1.4 5.9-1.4 3.6 0 6.7 1.5 6.7 6.2v12.3c-1.6.8-3.8 1.3-6.5 1.3m3.4-11.2c-4.8.6-7.7 1.6-7.7 5.5 0 2.8 1.7 3.9 4.5 3.9 1.2 0 2.4-.2 3.2-.6v-8.8zM239.6 36.8c-2.8 0-5.1-.5-6.7-1.4V13c1.4-.8 3.7-1.4 6.4-1.4 5.4 0 8.2 2.6 8.2 6.1 0 3.5-2.6 5.3-4.8 5.7v.1c2.3.4 5.7 2.6 5.7 6.3.1 5-3.7 7-8.8 7m-.3-23.2c-1.3 0-2.2.2-3.2.5v8.7h1.6c5 0 6.8-1.6 6.8-4.8-.1-2.9-1.9-4.4-5.2-4.4m-1.6 10.9H236v9.7c.9.4 2 .6 3.4.6 3.2 0 5.7-1.3 5.7-4.8.1-3.9-2.1-5.5-7.4-5.5M65.3 36.7V26.1h-6.2v10.6h-5.8V12.2h5.8v10.1h6.2V12.2h5.8v24.5zM82 16.7c-5.5 0-8.4 4.2-8.4 9.9s2.9 10 8.5 10c5.5 0 8.4-4.2 8.4-10 0-5.7-2.9-9.9-8.5-9.9zm.1 16.1c-2.4 0-3-2.8-3-6.2 0-3.4.5-6.4 3-6.4 2.4 0 2.9 3 2.9 6.4.1 3.4-.5 6.2-2.9 6.2zM103.7 36.4V23c0-1.4-.6-2.7-2.8-2.7-1.1 0-1.7.2-2.3.4v15.7H93V18.3c1.9-.9 4.6-1.4 8-1.4 6.1 0 8.3 2.6 8.3 6.1v13.4h-5.6zM119.5 44.6c-2.9 0-5.6-.6-7.1-1.4l1.4-3.6c1.2.6 2.9 1.1 4.8 1.1 2.9 0 4-1.4 4-3.6V36c-.7.4-1.8.6-3.4.6-4.6 0-7.9-3.5-7.9-9.2 0-6.4 3.3-10.4 9.9-10.4 2.9 0 5.4.6 6.8 1.4v18.2c-.1 5.5-3.5 8-8.5 8m3.1-24.1c-.4-.2-1-.3-1.8-.3-2.8 0-4 2.3-4 6.9 0 4.3 1.1 6.4 3.9 6.4.8 0 1.4-.2 1.9-.5V20.5zM132.7 36.5V12h5.8v20.6h6.2v3.9zM155.3 16.9c-5.5 0-8.6 3.9-8.6 9.9 0 6.1 3.4 10 9.2 10 3.2 0 5.4-.6 6.9-1.4l-1.2-3.4c-1 .5-2.7 1-5 1-2.8 0-4.1-1.3-4.6-4.2-.1-.3-.1-.7-.1-1.1h11.6v-.6c.1-6.4-2.7-10.2-8.2-10.2m-3.8 8.1c.1-3.2 1.5-4.8 3.5-4.8s3.1 1.5 3.2 4.8h-6.7zM173.9 36.7c-5.6 0-8.5-4.2-8.5-10 0-5.7 2.9-9.9 8.4-9.9 5.6 0 8.5 4.2 8.5 9.9.1 5.7-2.8 10-8.4 10m0-16.5c-2.4 0-3 3-3 6.4 0 3.4.6 6.2 3 6.2 2.5 0 2.9-2.8 2.9-6.2.1-3.4-.4-6.4-2.9-6.4M195.9 36.4V23c0-1.4-.6-2.7-2.8-2.7-1.1 0-1.7.2-2.4.4v15.7h-5.6V18.3c1.9-.9 4.6-1.4 8.1-1.4 6.1 0 8.2 2.6 8.2 6.1v13.4h-5.5zM211.6 44.6c-3 0-5.6-.6-7.1-1.4l1.4-3.6c1.1.6 2.9 1.1 4.7 1.1 2.9 0 4-1.4 4-3.6V36c-.7.4-1.8.6-3.4.6-4.6 0-7.9-3.5-7.9-9.2 0-6.4 3.3-10.4 9.9-10.4 2.9 0 5.4.6 6.8 1.4v18.2c0 5.5-3.5 8-8.4 8m3-24.1c-.4-.2-1-.3-1.8-.3-2.8 0-4 2.3-4 6.9 0 4.3 1.1 6.4 3.9 6.4.8 0 1.4-.2 1.9-.5V20.5zM42.6 12.3c-1.5-.2-2.9-.5-4.4-.8C31.3 9.6 25.5 5.6 21.3 0l-4.9 2.8c2.2 3 4.7 5.6 7.7 7.8 3.8 2.9 8 4.9 12.6 6.2 1.9.5 3.9.9 5.9 1.1v-5.6zM42.6 27.4v-5.6c-2.3-.2-4.6-.6-6.9-1.2-5.1-1.4-9.8-3.7-14-6.8-3.4-2.5-6.3-5.6-8.7-9L8.2 7.5c2.8 4.1 6.2 7.6 10.2 10.6 4.8 3.6 10.1 6.2 15.9 7.8 2.8.8 5.5 1.2 8.3 1.5"/>
    <path class="st0" d="M4.8 9.5C7.8 14 11.6 18 16 21.3c5.2 3.9 11 6.7 17.2 8.4 3.1.8 6.2 1.3 9.3 1.6v5.6c-3.6-.2-7.2-.8-10.8-1.8-7-1.9-13.4-5-19.2-9.3C7.7 22 3.5 17.4 0 12.3l4.8-2.8z"/>
    <path class="st1" d="M4.8 39.7c3-4.5 6.8-8.5 11.2-11.8 5.2-3.9 11-6.7 17.2-8.4 3.1-.8 6.2-1.3 9.3-1.6v-5.6c-3.6.2-7.2.8-10.8 1.8-7 1.9-13.4 5-19.2 9.3-5 3.8-9.2 8.3-12.7 13.4l5 2.9z"/>
    <path class="st1" d="M42.6 21.8v5.6c-2.3.2-4.6.6-6.9 1.2-5.1 1.4-9.8 3.7-14 6.8-3.4 2.5-6.3 5.6-8.7 9l-4.8-2.8C11 37.5 14.4 34 18.4 31c4.8-3.6 10.1-6.2 15.9-7.8 2.8-.7 5.5-1.2 8.3-1.4M42.6 36.9c-1.5.2-2.9.5-4.4.9-6.9 1.8-12.7 5.8-16.9 11.4l-4.9-2.8c2.2-3 4.7-5.6 7.7-7.8 3.8-2.9 8-4.9 12.6-6.2 1.9-.5 3.9-.9 5.9-1.1v5.6z"/>
</svg>