<svg id="lesPaul" data-name="lesPaul" 
    xmlns="http://www.w3.org/2000/svg" viewBox="0 0 850.19 836.19">
    <title>Les Paul</title>
    <path d="M706.51,117.18c-5-1.37-9.3-.65-12.16-4-1.14-1.35-4.16-3-3.64-3.55,2-2,2.12-5.32,4.64-6.52a25.48,25.48,0,0,0,5.16-3.63c3.32,3.79,7.17,7.24,6.94,12.69-.16,3.75,1.4,3.2,3.35,1.63,4.54-3.64,9-7.41,13.41-11.18.81-.7,2.16-1.39,1.49-2.81a3.8,3.8,0,0,0-3-2.09c-3.1-.64-6.38-.49-9.1-3-3.87-3.62-3.74-7.92.9-10.66,1.69-1,3.36-2,5.07-3.07,3.4,3.49,6.29,7,6.85,12.37.5,4.87,2.45,5.25,5.71,1.91s6.61-7,9.89-10.57c2.74-3,2.22-4.27-1.93-5-2.93-.47-6-.7-8.64-3-4-3.53-3.86-8.24,1.19-10.52,1.9-.85,4-5.9,7-1,1.42,2.39,4.85,3.7,3.8,7.47-.26,1,.63,2.15.72,3.26a2.52,2.52,0,0,0,2,2.52c1.2.24,1.43-1.15,2-1.86a97.51,97.51,0,0,0,12-19.34c.62-1.32,1.21-2.64,2.15-4.69,6.47,9,15.23,13.15,25.22,15.27,4.52,1,6.77,4,6.3,8.7-.29,2.83.58,4.1,3.49,3.64,4.93-.77,7.78,1.84,8.66,6.22,2,10.16,6.49,18.77,15.31,25.17-8.93,3.45-16.42,8.28-23.66,13.51-1,.68-2.78,1.18-2.24,2.84.4,1.23,1.67,1.75,3,2.21,3.19,1.06,6.82.6,9.56,3.41,3.1,3.16,2.8,8.58-1.41,10.19-2.19.83-4.71,5.62-7.47.62-1.34-2.43-4.9-3.78-3.51-7.61.4-1.07-.52-2.55-.92-3.63-.76-2.09-2-4.16-5.07-1.66-4.27,3.49-8.11,7.41-12,11.26-3,3-2.36,4.72,1.91,6.39,3.12,1.22,7.21-.09,9.42,3.44.93,1.48,4.33,2,3.23,3.59-1.54,2.21-1.6,6-4.58,6.57-2.29.46-4.36,5.76-7.08.87-1.33-2.4-4.88-3.6-3.82-7.45a6.88,6.88,0,0,0-1-4.7c-1.35-2.31-3.11-4.12-5.64-.89-3,3.81-6.2,7.41-9.16,11.22s-2.54,4.49,2.18,5.77c.32.08.64.4.92.35,5-.83,9.24,2.83,10,5.75s-2.88,6.95-7,8.85c-2.07.94-2.79,1-4.34-.61A16.81,16.81,0,0,1,757.94,171c-.08-1.09-.14-2.21-1.21-2.44s-1.66.82-2.22,1.67c-2.88,4.45-5.88,8.83-8.65,13.35-1.25,2-2.5,2.85-5.11,2.65-11.13-.84-22,.52-31.19,7.39-4.89,3.65-9.06,8.31-13.36,12.7-17.5,17.83-34.89,35.75-52.37,53.6q-50.7,51.75-101.44,103.45c-31.24,31.88-62.61,63.63-93.58,95.77-9.44,9.79-20.13,18.51-27.67,30.05-6.57,10.05-8.93,20.55-2.42,31.63,7,11.9,16.11,20.46,31.06,20.44,6.87,0,13.45-2.15,20.27-2.24,9.56-.12,12,3.62,8,12.38-6.2,13.67-17.35,21.86-30.76,27.49-10.84,4.54-22.24,7.42-33.38,11.09-21.12,7-31.08,22.5-34,43.5-2.34,16.73-2.35,33.72-5.89,50.33-6.39,30-18.55,57.1-40.61,78.82A131.28,131.28,0,0,1,257.67,800c-39.42,5.43-74.43-5.55-105.94-29.05-28.68-21.38-53.19-46.62-71.08-77.85-13.35-23.31-21.33-48.28-20.53-75.31,1.07-35.53,15.44-65.46,41.22-89.62q35.68-33.42,84.77-38.29c16.45-1.63,33-2.64,49-7.59,20.93-6.47,35.81-19.28,43.6-40.1,4.21-11.26,7.85-22.87,14.88-32.84,11.61-16.45,27.19-26.94,47.55-27.95,16.07-.81,31,4.32,44.48,13.18a138,138,0,0,1,24.53,20.3c2.35,2.47,3.73,2.61,6.32.12q35.49-34.05,71.25-67.82Q540.83,296.85,594,246.62c27-25.53,53.71-51.25,80.83-76.58,10.89-10.17,13.5-22.8,12.63-36.65-.18-2.82.25-4.08,2.5-5.45C695.24,124.7,700.36,121.21,706.51,117.18Z" transform="translate(-0.91 -0.91)"/>
    <path d="M400,557.58a21.61,21.61,0,0,1-2.45,9.54c-17,36.92-32.95,74.33-49.15,111.61-1.8,4.15-4,8-7.46,11.07-6.2,5.4-12.43,5.05-17.75-1.37-6.57-7.95-12.79-16.18-19.3-24.18-2.73-3.35-5.88-6.35-8.69-9.64-5.1-6-5.37-11.78-.77-18.15a50.57,50.57,0,0,1,5.26-6Q344,586.1,388.4,541.78a27.7,27.7,0,0,1,3.68-3.35c1.22-.85,2.87-1,2.82,1.08-.15,5.75,2.41,10.61,4.65,15.6A9.1,9.1,0,0,1,400,557.58Z" transform="translate(-0.91 -0.91)" fill="#fefefe"/>
    <path d="M370.27,539.07a14.45,14.45,0,0,0,0,2.1c.73,4.1-.67,7.36-4.28,9.25a8.53,8.53,0,0,1-10.55-1.67q-17.19-17-34.23-34.25a8.43,8.43,0,0,1-1.57-10.15c1.68-3.5,4.67-5.25,8.57-4.52,2.87.54,2.85-.6,2.51-2.86-.59-4,1.34-6.86,4.83-8.4s6.89-1.21,9.7,1.58q17.34,17.27,34.59,34.61a8.25,8.25,0,0,1,1.64,10.1C379.19,539.41,375,540.13,370.27,539.07Z" transform="translate(-0.91 -0.91)" fill="#fefefe"/>
    <path d="M289.11,620a8.52,8.52,0,0,0,0,1.8c1.05,4.31-.46,7.71-4.23,9.69-4,2.08-7.74,1.09-10.91-2.08q-16.59-16.6-33.18-33.2c-3-3-4.11-6.46-2.4-10.41a7.72,7.72,0,0,1,8.83-4.95c2.22.31,2.95-.12,2.49-2.56-.73-3.91,1.11-6.87,4.54-8.58a8.31,8.31,0,0,1,10.12,1.63q17.22,17,34.25,34.24c3,3,3.66,6.71,1.6,10.52C297.81,620.58,293.77,621.29,289.11,620Z" transform="translate(-0.91 -0.91)" fill="#fefefe"/>
    <path d="M320.87,434.65a17.31,17.31,0,1,1,17.52,17.27A17.42,17.42,0,0,1,320.87,434.65Z" transform="translate(-0.91 -0.91)" fill="#fefefe"/>
    <path d="M277,704a12.18,12.18,0,0,1-12.39,12.2,12.49,12.49,0,0,1-12.46-12.26,12.7,12.7,0,0,1,12.75-12.56A12.42,12.42,0,0,1,277,704Z" transform="translate(-0.91 -0.91)" fill="#fdfdfd"/>
    <path d="M289.29,752a12.3,12.3,0,0,1-12.24,12.43,12.44,12.44,0,1,1,0-24.88A12.36,12.36,0,0,1,289.29,752Z" transform="translate(-0.91 -0.91)" fill="#fefefe"/>
    <path d="M228.88,752.08A12.63,12.63,0,0,1,216.21,740a13,13,0,0,1,12.68-12.78,12.65,12.65,0,0,1,12.27,12.54A12.33,12.33,0,0,1,228.88,752.08Z" transform="translate(-0.91 -0.91)" fill="#fefefe"/>
    <path d="M313.15,703.82a11.91,11.91,0,0,1,12,12.44,12.33,12.33,0,1,1-24.65-.6A12,12,0,0,1,313.15,703.82Z" transform="translate(-0.91 -0.91)" fill="#fefefe"/>
</svg>