<svg id="bbb0a956-d34b-4424-a9d9-9a02afdebdb5" data-name="Layer 1" 
    xmlns="http://www.w3.org/2000/svg" viewBox="0 0 200.17 200.17">
    <title>marshall</title>
    <path d="M39.16,113.09a61,61,0,0,1-7.6,11c-.69.8-1.34,2.2-2.76,1.55-1.57-.72-1.17-2.18-.88-3.48a83.17,83.17,0,0,0,2.43-14.87c-1.65,2.82-3.26,5.67-5,8.46-2.09,3.44-4.55,6.57-8.26,8.41C11.41,127.05,6.58,125.76,1,120v-7c3-2.74,6.05-5.23,10.53-3.34,1,.4,2,.73,1.81,2-.17,1.41-1.19,1.24-2.25,1.08-3.54-.52-4.35,1.68-4.22,4.53s2.17,4,4.75,3.94c3.77,0,6.06-2.44,7.89-5.33C23.27,110,26.1,103.56,29,97.22c3.05-6.65,6-13.34,10.11-19.45.84-1.26,1.58-3.49,3.68-2.48,2.32,1.14,1.13,3.16.42,4.79a100.16,100.16,0,0,0-5.72,18.54c-.26,1.14-1,2.59,0,3.13,1.64.89,2.15-1,2.85-2,5.1-7.2,10.25-14.37,16.63-20.55.83-.81,1.64-1.67,2.54-2.4s2.08-2,3.42-.73c1.09,1.06.14,2.17-.43,3.14-2.62,4.44-5.37,8.8-7.91,13.28-3.7,6.51-7.3,13.11-8.66,20.58-.48,2.67-1.64,6.53,1.43,7.65s5.77-1.7,7.61-4.41c1.3-1.92,2.48-3.93,3.73-5.89,4.71-7.32,12.24-6.64,19.41-6.61,2.5,0,1.56,2,.91,3.3-1.91,3.85-3.87,7.67-5.87,11.61,6-1.66,12.43-11.51,11.46-17.24a8.46,8.46,0,0,1-.15-1c-.18-2.91-.1-5.68,2.83-7.44a3.29,3.29,0,0,1,4.47.58c2.29,2.28,1.59,4.83.65,7.4-.22.6-.4,1.22-.6,1.85,5.51,1.16,5.77,2,2.46,6.65-2,2.85-4,5.73-5.87,8.67-.5.77-1,2,0,2.66a3.05,3.05,0,0,0,2.32-.2c2.86-1.16,4.91-3.37,6.86-5.65,3.69-4.3,7.32-8.64,11-12.91,1.06-1.21,2.14-2.66,4.13-1.13,2.35,1.79.34,3.11-.59,4-3.71,3.61-.09,7.11-.61,11.06a13.47,13.47,0,0,0,7.91-7.6c2.7-6.07,5.56-12.08,8.36-18.11.87-1.88,2-4,4.36-2.94s.77,3.16.13,4.75c-1.67,4.13-3.42,8.23-5.27,12.66,2.53-.11,4.88-3.58,7.17-.47,2.09,2.83.92,5.71-.46,8.45-.82,1.63-1.74,3.21-2.68,4.95,2.6,1,3.48-1,4.39-2.58,1.53-2.62,3.65-4.74,5.46-7.1,4.7-6.14,11.45-4.09,17.47-4.57,2-.17,1.56,1.87.79,3.38-1.68,3.25-3.26,6.55-4.8,9.86-.45,1-1.53,2.26-.19,3.09,1.16.72,2.11-.57,3-1.25,2.32-1.78,3.56-4.34,4.83-6.88a66,66,0,0,1,14-19.28,18.83,18.83,0,0,1,6.6-4.38c1.29-.43,2.64-.65,3.7.54.93,1,.51,2.13.06,3.25-1.1,2.76-2.17,5.54-4.27,7.81,1.85,1,2.33-.59,3.11-1.52A49.2,49.2,0,0,1,195.18,89c1.95-1.36,3.88-1.94,5.82,0v3c-3.8,9.2-10.6,15.83-18.45,21.56a8.07,8.07,0,0,0-2,2.18,3.64,3.64,0,0,0,.28,4.63c1.37,1.52,2.7.37,4-.32,3.14-1.65,4.6-5.15,7.6-7.15.65,3.94-3.33,9.55-8.29,12-3.55,1.78-6.6,1.08-8.64-2.21-1.72-2.78-2.61-.48-3.71.29-6.09,4.26-8.63,4-12.37-1.37-1.23.83-2.44,1.71-3.71,2.48-1,.59-2.69,1.75-3,1.47-5.12-4.68-12,3.8-17-2.4-1.27-1.59-2.57.7-3.74,1.34-2.19,1.21-4.2,1.88-6.39,0s-1.68-4.07-.57-6.29c1.45-2.92,2.88-5.84,4.73-9.61a14.13,14.13,0,0,0-7.58,7c-1.17,2.2-2.07,4.54-3.27,6.72-.84,1.54-1.46,3.73-3.74,3.45-2.53-.32-2.27-2.7-2.25-4.83-2.24,1.37-4,2.63-5.93,3.56s-4.59,2.36-6.14,1c-4.08-3.41-7.69-1.79-11.89-.52-4.87,1.47-6.4-.73-6.19-8a64.13,64.13,0,0,1-5.39,5c-2.84,2.1-5.64,5-9.66,2.08-1-.72-1.82,0-2.74.41-1.22.48-3,1.33-3.79.85-5-2.84-9.72-1-14.65.23-2.57.67-4.84-.82-5.66-3.69-.77-2.37-.15-4.81-.38-7.21C40.42,114,40.84,112.71,39.16,113.09Z" transform="translate(-0.91 -0.92)"/>
    <path d="M39.16,113.09c.32-.53.59-1.46,1-1.51,1.35-.18.87,1,.86,1.63,0,3-.07,5.89-.12,8.83C38.46,119.41,41,115.82,39.16,113.09Z" transform="translate(-0.91 -0.92)" fill="#b2b2b2"/>
    <path d="M151.21,110.3c-1,4-3,7.68-7.06,10-1,.58-2.11,1.29-3.17.27a2.76,2.76,0,0,1-.76-2.77,16.33,16.33,0,0,1,8-10.36C150.67,106.05,151.57,107.48,151.21,110.3Z" transform="translate(-0.91 -0.92)" fill="#f7f7f7"/>
    <path d="M180.79,103.21c-2.79,5.61-5.25,11.29-9.74,15.58-1.44,1.37-3.19,3.9-5.32,1.52-1.76-2-.95-4.61,1.1-6.14C171.56,110.63,176.36,107.2,180.79,103.21Z" transform="translate(-0.91 -0.92)" fill="#fafafa"/>
    <path d="M71.5,109.45c.17,3.48-4.47,9.81-8.31,11.08-2.25.74-3.13-.09-3.11-2.25,0-3,5.51-10.14,8.45-11.1C70.21,106.63,71.52,106.75,71.5,109.45Z" transform="translate(-0.91 -0.92)" fill="#f9f9f9"/>
    <path d="M105.75,113.48c0,2.11.3,4.29-.11,6.32-.26,1.27-1.46,3-3.25,2-1.43-.77-2.63-2.19-1.36-4,1.14-1.68,2.43-3.26,3.65-4.89Z" transform="translate(-0.91 -0.92)" fill="#ebebeb"/>
    <path d="M180.16,95a25.39,25.39,0,0,1-9.48,11.09A32.73,32.73,0,0,1,180.16,95Z" transform="translate(-0.91 -0.92)" fill="#e7e7e7"/>
    <path d="M187,102.49l7.76-9.09C193.31,97.46,192.35,101.93,187,102.49Z" transform="translate(-0.91 -0.92)" fill="#e3e3e3"/>
</svg>