<svg id="e7e1700c-e39c-45b5-9f29-06b0024e9cc2" data-name="Layer 1" 
    xmlns="http://www.w3.org/2000/svg" viewBox="0 0 100.18 100.16">
    <title>photoshop_cc</title>
    <path d="M1,65C1,44.89,1.1,24.77.9,4.66.87,1.33,1.9.93,4.82.94q46.38.15,92.76,0c3.18,0,3.56.87,3.49,3.66-.2,7.81-.07,15.63-.07,23.44-3.62-.36-6.67-.07-6.09,4.88C95,34,94.25,34.66,93.19,35c-.06-7.31-.32-14.62-.11-21.93.1-3.36-1-4.1-4.19-4.08-25.09.13-50.19.17-75.28,0C9.8,8.9,9,10,9,13.63,9.13,32.91,9,52.18,8.87,71.45a3.07,3.07,0,0,1-1.75-2.74C7.49,63.42,4.56,63.73,1,65Z" transform="translate(-0.9 -0.9)" fill="#9fcafd"/>
    <path d="M1,65c3.56-1.27,6.49-1.58,6.12,3.71a3.07,3.07,0,0,0,1.75,2.74L9,93c.47,1.92,2,2,3.51,2q38.53,0,77.06,0c1.19,0,3,.52,2.43-1.85,1.26-1.75,1-3.76,1-5.73L93.19,35c1.06-.3,1.85-1,1.72-2.08-.58-5,2.47-5.24,6.09-4.88V38a51.33,51.33,0,0,0,0,22c0,12.83-.07,25.67.06,38.5,0,2.15-.41,2.57-2.56,2.56q-47.5-.14-95,0c-2.15,0-2.59-.41-2.56-2.56C1.07,87.33,1,76.17,1,65Z" transform="translate(-0.9 -0.9)" fill="#80baf5"/>
    <path d="M101,60a51.33,51.33,0,0,1,0-22Z" transform="translate(-0.9 -0.9)" fill="#9fcafd"/>
    <path d="M9,93,8.87,71.45C9,52.18,9.13,32.91,9,13.63c0-3.68.8-4.73,4.61-4.7,25.09.19,50.19.15,75.28,0,3.2,0,4.29.72,4.19,4.08-.21,7.31,0,14.62.11,21.93L93,87.38c0,2,.27,4-1,5.73ZM32,70l1-.12c1.68-2.73.73-5.73.7-8.58,0-3,.51-4.23,4-4.44C45,56.44,49.44,52.39,50.82,46c3.84-7.28-1.57-15.8-10.89-16.72-4-.39-8,0-12,0-3.55-.86-2.82,1.72-2.82,3.58,0,11.15,0,22.3.09,33.45,0,1.2-.76,2.69.77,3.6L27,70ZM67.83,39H65.68c-3.52,0-9.88,3.93-10.48,6.46-1.17,4.86.68,7.43,6.68,10.15,1.53.69,3.49.81,4.51,2.55.73,1.24,2.43,2.38,1.24,3.9-.93,1.18-1.81,3-3.79,2.76a9.47,9.47,0,0,1-3.73-1c-2-1.19-4-1.5-4.9.84-.75,2,.71,3.79,2.45,4.93,3.62,2.38,12.52.68,16.18-3C78.15,62.27,78,57.85,73.37,54c-1.76-1.46-3.33-2.92-5.9-3.12-1.92-.15-4.11-2.25-3.85-3.59.34-1.8,2.75-2.65,5-2.25.33.06.66.1,1,.14,1.85.18,4.21,2.57,5.33-.69,1.26-3.65-2.06-4.29-4.32-5.27A6.31,6.31,0,0,0,67.83,39Z" transform="translate(-0.9 -0.9)" fill="#090442"/>
    <path d="M9,93l83,.1c.53,2.37-1.24,1.85-2.43,1.85q-38.52,0-77.06,0C11,95,9.49,94.93,9,93Z" transform="translate(-0.9 -0.9)" fill="#9fcafd"/>
    <path d="M67.83,39a6.31,6.31,0,0,1,2.77.27c2.26,1,5.58,1.62,4.32,5.27-1.12,3.26-3.48.87-5.33.69-.33,0-.66-.08-1-.14-2.23-.4-4.64.45-5,2.25-.26,1.34,1.93,3.44,3.85,3.59,2.57.2,4.14,1.66,5.9,3.12,4.59,3.83,4.78,8.25.47,12.59-3.66,3.68-12.56,5.38-16.18,3-1.74-1.14-3.2-2.93-2.45-4.93.89-2.34,2.88-2,4.9-.84a9.47,9.47,0,0,0,3.73,1c2,.2,2.86-1.58,3.79-2.76,1.19-1.52-.51-2.66-1.24-3.9-1-1.74-3-1.86-4.51-2.55-6-2.72-7.85-5.29-6.68-10.15.6-2.53,7-6.44,10.48-6.46Z" transform="translate(-0.9 -0.9)" fill="#80baf5"/>
    <path d="M27,70l-1-.11V35c0-2.12-.46-4.42,2-5.72,4,0,8-.42,12,0,9.32.92,14.73,9.44,10.89,16.72l-7.21-.4a20.27,20.27,0,0,0,.24-3.46c-.48-5.1-2.2-6.51-7.29-6.36-5.39.15-2,4.16-2.71,6.3-.51,1.5-.21,3.28-.27,4.93-4.87-.46-7,1.49-6.63,6.62C27.32,59.05,27,64.54,27,70Z" transform="translate(-0.9 -0.9)" fill="#9fcafd"/>
    <path d="M43.61,45.57l7.21.4C49.44,52.39,45,56.44,37.68,56.88c-3.47.21-4,1.43-4,4.44,0,2.85,1,5.85-.7,8.58V58.57c-.82.34-1,.65-1,1,0,3.5,0,7,0,10.49H27c0-5.48.3-11-.07-16.42-.35-5.13,1.76-7.08,6.63-6.62.15,1.76.51,3.08,2.86,2.88a10.73,10.73,0,0,0,6.49-3c1.7.37.6-.77.7-1.27Z" transform="translate(-0.9 -0.9)" fill="#80baf5"/>
    <path d="M28,29.28c-2.42,1.3-1.95,3.6-2,5.72V69.91c-1.53-.91-.76-2.4-.77-3.6-.08-11.15-.09-22.3-.09-33.45C25.14,31,24.41,28.42,28,29.28Z" transform="translate(-0.9 -0.9)" fill="#80baf5"/>
    <path d="M32,70c0-3.5,0-7,0-10.49,0-.31.17-.62,1-1V69.9Z" transform="translate(-0.9 -0.9)" fill="#9fcafd"/>
    <path d="M42.93,46.9a10.73,10.73,0,0,1-6.49,3c-2.35.2-2.71-1.12-2.86-2.88.06-1.65-.24-3.43.27-4.93.73-2.14-2.68-6.15,2.71-6.3,5.09-.15,6.81,1.26,7.29,6.36a20.27,20.27,0,0,1-.24,3.46l0,.06C43.4,46.05,43.17,46.48,42.93,46.9Z" transform="translate(-0.9 -0.9)" fill="#090442"/>
    <path d="M42.93,46.9c.24-.42.47-.85.7-1.27C43.53,46.13,44.63,47.27,42.93,46.9Z" transform="translate(-0.9 -0.9)" fill="#9fcafd"/>
</svg>