<svg id="af5ea655-9efa-4541-bf03-8156e8fe265d" data-name="Layer 1" 
    xmlns="http://www.w3.org/2000/svg" viewBox="0 0 651.18 432.21">
    <title>piano</title>
    <path d="M326.37,1Q487.1,1,647.8.89c3.74,0,4.29.94,4.29,4.41q-.15,211.7,0,423.4c0,3.47-.55,4.41-4.29,4.41q-321.18-.18-642.35,0c-3.87,0-4.54-1-4.54-4.65Q1.08,217,.91,5.55C.91,1.89,1.58.89,5.45.9Q165.9,1.1,326.37,1Z" transform="translate(-0.91 -0.89)" fill="#fefefe"/>
    <path d="M328.23,14.94q135.72,0,271.46,0c17.72,0,30.34,9.1,34.66,25.15a46.09,46.09,0,0,1,1.51,11.81q.1,168,0,336c0,14.46-5.5,26.26-18.8,33.38-5.37,2.87-11.2,3.85-17.32,3.85q-100-.11-200,0-171.22,0-342.45.08c-11.17,0-20.54-3.24-28.16-11.45-7-7.57-9-16.9-9-26.73q-.11-118.23,0-236.47c0-32.66-.1-65.33.06-98,.05-10.37,2.48-20,10.32-27.71,7.09-7,15.53-9.88,25.29-9.87q66,0,132,0Z" transform="translate(-0.91 -0.89)" fill="#f682ab"/>
    <path d="M328.58,49q134,0,267.91-.08c4,0,5.46.73,5.44,5.12q-.3,46.49,0,93c0,4.14-1.35,4.89-5.1,4.89q-268.91-.14-537.82,0c-4.09,0-4.92-1.29-4.9-5.08.13-30.82.17-61.65,0-92.47,0-4.52,1.31-5.47,5.62-5.46Q194.13,49.09,328.58,49Z" transform="translate(-0.91 -0.89)" fill="#fefefe"/>
    <path d="M54.18,288.51c0-32.48.07-65-.1-97.46,0-4.25,1.27-5.27,5.35-5.23,19.16.21,38.32.25,57.48,0,4.71-.07,6.18,1,6.15,6-.25,31.15-.13,62.31-.12,93.46,0,13.73,6.1,19.89,19.67,20,3.66,0,7.33.12,11,0,2.66-.12,3.43,1,3.42,3.52q-.09,39.48,0,79c0,3.23-1.61,3.37-4,3.36-31.49,0-63-.11-94.46.07-4.22,0-4.42-1.84-4.41-5.1Q54.25,337.25,54.18,288.51Z" transform="translate(-0.91 -0.89)" fill="#fefefe"/>
    <path d="M601.83,288.51c0,32.49-.06,65,.07,97.47,0,3.79-.81,5.14-4.92,5.12q-46.74-.27-93.48,0c-3.36,0-4.6-.76-4.58-4.39q.22-38.49,0-77c0-3.35.74-4.88,4.39-4.61,3.82.29,7.67.11,11.5,0,11.67-.18,18.2-6.72,18.21-18.4q.06-47.24,0-94.47c0-6.36,0-6.37,6.5-6.37,18.82,0,37.65.14,56.48-.09,4.44,0,5.93,1,5.9,5.71C601.72,223.86,601.82,256.18,601.83,288.51Z" transform="translate(-0.91 -0.89)" fill="#fefefe"/>
    <path d="M250.79,391c-18.33,0-36.66-.1-55,.08-3.66,0-4.85-.86-4.82-4.69q.26-38.25,0-76.48c0-3.72.93-5.08,4.74-4.78a116.93,116.93,0,0,0,12,0c10.91-.24,17.38-6.6,17.42-17.56.11-29.49,0-59,.05-88.48,0-3.33.08-6.67,0-10-.08-2.34.84-3.24,3.21-3.23q22.75.11,45.49,0c3.93,0,3.07,2.66,3.07,4.81q0,35,0,70c0,9.16,0,18.33,0,27.49,0,9.9,6.58,16.66,16.43,16.95,4.66.13,9.33.11,14,0,2.39-.05,3.66.48,3.65,3.28q-.12,39.75,0,79.49c0,3.46-2.08,3.09-4.27,3.09Z" transform="translate(-0.91 -0.89)" fill="#fefefe"/>
    <path d="M404.82,391c-18.33,0-36.65-.08-55,.07-3.49,0-4.95-.56-4.92-4.56q.29-38.49,0-77c0-3.64,1.23-4.58,4.61-4.4,4.32.23,8.66.15,13,0,10-.39,16.47-7,16.49-16.91q.11-48,0-96c0-6.32,0-6.32,6.55-6.32,13.33,0,26.66.15,40-.1,4.14-.08,5.34,1.07,5.32,5.27-.17,31.32-.1,62.64-.09,94,0,14.24,5.8,20,19.94,20.17,4.58.07,10.5-2.12,13.4,1,2.61,2.84.73,8.6.75,13.07.06,22.33-.06,44.65.11,67,0,3.71-.95,4.83-4.73,4.79C441.81,390.89,423.31,391,404.82,391Z" transform="translate(-0.91 -0.89)" fill="#fefefe"/>
    <path d="M157,228.49c0-12.66.1-25.33-.06-38,0-3.3.63-4.77,4.34-4.66,8.49.26,17,.2,25.49,0,3.15-.06,4.38.75,4.37,4.15q-.19,38.49,0,77c0,2.87-.64,4.2-3.86,4.13q-13.25-.27-26.49,0c-3.27.07-3.84-1.31-3.81-4.16C157.08,254.15,157,241.32,157,228.49Z" transform="translate(-0.91 -0.89)" fill="#fefefe"/>
    <path d="M345,229c0,12.49-.15,25,.09,37.48.07,3.85-1.19,4.8-4.84,4.69-8.49-.26-17-.18-25.48-.06-2.74,0-3.82-.73-3.81-3.65q.14-39,0-78c0-2.93,1.1-3.67,3.82-3.64,8.83.13,17.66.18,26.48,0,3.31-.08,3.81,1.37,3.79,4.18C344.94,203,345,216,345,229Z" transform="translate(-0.91 -0.89)" fill="#fefefe"/>
    <path d="M499,228.48c0,12.81-.09,25.63.06,38.43,0,3.25-.92,4.33-4.22,4.26-8.65-.21-17.3-.17-25.95,0-3,.06-4.05-.85-4-3.95q.15-38.67,0-77.36c0-3.05.95-4,4-4,8.65.17,17.31.19,25.95,0,3.25-.08,4.31.91,4.27,4.2C498.9,202.86,499,215.67,499,228.48Z" transform="translate(-0.91 -0.89)" fill="#fefefe"/>
</svg>