<svg id="bc902573-d533-42c3-81b3-96ea7a2a2597" data-name="Layer 1" 
    xmlns="http://www.w3.org/2000/svg" viewBox="0 0 720.19 540.19">
    <title>samsung</title>
    <path d="M207.16,67c-.08,11-.27,22-.18,33,0,3-.63,4.15-3.84,4-5.15-.27-10.33-.15-15.49,0-2.34,0-3.62-.23-3.55-3.18q1.1-42.22,1.87-84.46c.06-3,1.51-3.09,3.73-3.07,9.67.06,19.34.24,29-.08,3.79-.13,4.74,1.37,5.26,4.68,3.22,20.73,6.61,41.43,9.95,62.14.08.48.26.94.76,2.77,1.91-11.64,3.61-22,5.29-32.36,1.77-11,3.56-22,5.24-33,.43-2.81,1.25-4.28,4.66-4.18,9.83.29,19.67.2,29.5.05,2.81-.05,3.64.79,3.69,3.64q.79,41.49,1.91,83c.09,3.29-.74,4.37-4.08,4.18a133.86,133.86,0,0,0-15,0c-3.23.19-3.87-1-3.85-4,.07-11.67-.11-23.33-.2-35-.73-11.31-.07-22.64-.39-33.95,0-1.31,1.33-3.38-1.28-4q-6.8,37-13.57,74c-.39,2.18-1.28,3.08-3.62,2.92-3.31-.23-6.65-.06-10-.06-10.11,0-10.1,0-11.87-9.72Q215,60.66,208.85,27.09c-2.9.12-1.25,2.35-1.26,3.35-.17,10.56-.09,21.13-.12,31.7C207.46,63.77,207.77,65.44,207.16,67Z" transform="translate(31.09 211.09)" fill="#14289f"/>
    <path d="M502.84,36.1c.34,20.63.56,41.27,1.13,61.9.12,4.28-1.15,5.39-5.21,5.07a130.19,130.19,0,0,0-14,0c-2.31.07-3.2-.55-3.19-3q.11-41.68,0-83.38c0-2.69.93-3.39,3.47-3.36,9,.12,18,.07,27,0,2,0,3.36.2,4,2.58,6.28,22,12.7,44,19.07,66,1.32.65,1.37-.38,1.35-1.14-.12-3.95.44-7.93-.31-11.86-.28-17.14-.46-34.27-.91-51.4-.09-3.27.65-4.43,4-4.26,5.14.27,10.31.16,15.47,0,2.34-.06,3.15.69,3.14,3.13q-.12,41.69,0,83.36c0,2.75-1,3.32-3.47,3.29-8.65-.13-17.3-.11-26,0-2.12,0-3.21-.48-3.87-2.73-6.86-23.06-13.86-46.08-20.81-69.11C501.17,32.37,502.85,34.4,502.84,36.1Z" transform="translate(31.09 211.09)" fill="#14289f"/>
    <path d="M392.92,50.5c0-11,.09-22-.06-33,0-3.05.47-4.55,4-4.32a126.72,126.72,0,0,0,15,0c3.34-.18,4.14.91,4.12,4.21-.17,21-.11,42-.08,62.93,0,6.2,2.5,9.32,7.58,9.82,6.56.65,10.14-2.89,10.16-10.33,0-20.48.12-41-.08-61.43,0-4.09,1-5.55,5.18-5.22a132,132,0,0,0,14.48,0c2.55-.08,3.47.66,3.46,3.36-.11,21.48.2,43-.18,64.43-.26,15-8.22,23.12-23.11,25.07A57.5,57.5,0,0,1,410.6,105c-11-3-17.09-10.54-17.57-22-.23-5.49-.09-11-.11-16.48C392.91,61.15,392.92,55.83,392.92,50.5Z" transform="translate(31.09 211.09)" fill="#14289f"/>
    <path d="M581.65,59.37c0-7.5-.42-15,.09-22.48,1-15.6,7.69-22.7,23.14-25.24A51.43,51.43,0,0,1,628.62,13c14.19,4.35,17.59,15,17.22,27-.05,1.77-.76,2.32-2.38,2.31-6,0-12-.08-18,0-3.92.07-2.43-2.81-2.5-4.58-.29-7-3.26-10.47-9.29-10.51-5.43,0-9.32,3.2-9.41,8.87-.24,15-.22,30,0,45,.07,5.49,3.94,8.48,9.75,8.33,5.56-.14,8.8-3.11,9.07-8.49.12-2.5-.22-5,.07-7.49.6-5.15-.4-8.46-6.66-7.13-1.88.4-2.46-.58-2.64-2.51-1-10.66-1.06-10.65,9.55-10.65,6.34,0,12.67.14,19-.06,2.88-.09,3.68.83,3.61,3.67-.2,7.66.06,15.33-.12,23-.33,13.77-6.66,21.52-20.17,24.71A49,49,0,0,1,597.15,103c-9.33-3.41-14.81-10.1-15.24-20.17-.34-7.81-.07-15.64-.07-23.47Z" transform="translate(31.09 211.09)" fill="#14289f"/>
    <path d="M24.86,74.15h2c8.85,0,8.89,0,9.53,8.56.31,4.08,2,7.14,6.15,8.05,3.85.86,7.85.87,10.39-2.84,2.44-3.55,2.72-7.48.23-11.23-2.37-3.57-6-5.72-9.57-7.83C37.42,65.24,31.2,61.72,25.09,58c-10.36-6.31-13.7-15.85-11.93-27.4,1.54-10,8-16,17.46-18.31a59.84,59.84,0,0,1,28.19-.1C71,15,77.17,25.06,75.43,37.45,75.07,40,73.64,39.79,72,39.8c-4.83,0-9.67-.24-14.48.08-3.66.24-4.92-.74-4.76-4.62C53,29.2,50.06,26.15,44.79,26c-3.38-.13-6.35.75-7.91,4.05S35.4,36.79,38,39.78C40.75,43,44.5,44.9,48.13,46.9c5.83,3.2,11.73,6.26,17.32,9.88C79,65.56,80.11,79.42,75,93.43c-2.19,6-7.28,9.44-13.13,11.47a50,50,0,0,1-33.79,0C15.7,100.51,9.92,89.05,13,75.91c.45-2,1.62-1.74,2.91-1.75C18.86,74.14,21.86,74.15,24.86,74.15Z" transform="translate(31.09 211.09)" fill="#14289f"/>
    <path d="M129.08,22.81Q126,43,123,63.2c-1.9,12.51-3.9,25-5.66,37.53-.36,2.51-1.19,3.36-3.73,3.28-5.66-.18-11.35-.33-17,0-3.86.25-4.22-1.11-3.59-4.43,4.57-24,9-48.1,13.47-72.15.85-4.57.46-10.61,3.24-13.25,3.07-2.93,9.18-.78,14-.87,7.5-.16,15,0,22.49-.09,2.49-.05,3.43.75,3.88,3.26q7.66,42.26,15.63,84.45c.51,2.73-.42,3.07-2.72,3-5.66-.11-11.34-.25-17,0-3.42.17-4.49-1-4.95-4.34-3.53-25.06-7.27-50.09-11-75.13-.09-.58-.27-1.15-.4-1.73Z" transform="translate(31.09 211.09)" fill="#14289f"/>
    <path d="M319.21,74.05h1.5c3.16,0,7-1,9.31.38,2.71,1.66.67,5.82,1.06,8.86.5,4,2.63,6.43,6.46,7.25s7.9.53,10.19-3.27A9.67,9.67,0,0,0,347.35,76c-2.62-3.57-6.44-5.73-10.19-7.88-6.49-3.72-13.29-6.93-19.24-11.53-5.43-4.2-9.44-9.25-10.13-16.48-1.51-15.69,5.92-25.54,21.49-28.23A54.15,54.15,0,0,1,354.49,13c11.13,3.39,17.21,13.54,15.34,24.83-.37,2.23-1.62,2.11-3.13,2.11-5,0-10-.28-15,.08-3.88.29-5-1.05-4.58-4.74.47-4.54-1.48-7.85-6.17-8.83-3.67-.77-7.16-.09-9.13,3.44S330,37,332.73,40.1,339,45,342.5,46.92c6.54,3.62,13.25,6.92,19.3,11.4,10.94,8.11,11.67,19.26,8.9,31-2.5,10.59-10.8,14.91-20.76,16.82a52.55,52.55,0,0,1-25.68-1.23A24.82,24.82,0,0,1,307,76c.37-1.91,1.38-1.94,2.76-1.93C312.88,74.06,316.05,74.05,319.21,74.05Z" transform="translate(31.09 211.09)" fill="#14289f"/>
    <path d="M207.16,67V22.83a4,4,0,0,1,1.69,4.26c-1.43,1.38-.77,3.15-.79,4.73C208,42,208,52.09,207.87,62.23,207.85,63.85,208.3,65.57,207.16,67Z" transform="translate(31.09 211.09)" fill="#b2b8df"/>
    <path d="M260.17,27.1c0-1.09-.38-2.32,1.67-2.9V65c-1.64-6-.36-12.18-.81-18.25C260.54,40.23,261.89,33.6,260.17,27.1Z" transform="translate(31.09 211.09)" fill="#b8bee2"/>
    <path d="M536.17,68.88c1.33,4.51.4,9.17.85,13.74.06.59.31,2-1.11,1.41-.84-.32-.91-1.28-.78-2.15C537.06,77.67,535,73.15,536.17,68.88Z" transform="translate(31.09 211.09)" fill="#969fd4"/>
    <path d="M502.84,36.1a6.91,6.91,0,0,1-.63-5.6c.86-2.08,1.39-.42,1.61.69C502.39,32.61,503.64,34.56,502.84,36.1Z" transform="translate(31.09 211.09)" fill="#8d97d1"/>
</svg>