<svg id="b6f22115-4c7d-454a-b917-8c7eb42f53d4" data-name="Layer 1" 
    xmlns="http://www.w3.org/2000/svg" viewBox="0 0 691.94 326">
    <title>sgs</title>
    <path d="M1,275H175c-.06-1.37-1.07-1.44-1.73-1.71-19-7.6-28.14-22.45-31.17-41.9C140.94,224.28,141,217.13,141,210c0-3.1.79-4.39,4.22-4.34,13,.19,26,.16,39,0,3.06,0,4.06.92,3.95,4a66.19,66.19,0,0,0,2,19.32c2.18,8.29,7.38,13.48,15.93,15.38,12,2.68,22.72-.38,27.9-8.29,6.12-9.36,5.49-23-1.51-32.36-4.59-6.11-10.72-10.44-17-14.53-14.79-9.6-30.76-17.34-44.72-28.29-24.06-18.87-31.4-43.32-24.15-72.47,4.84-19.5,17.67-31.7,36.62-37.39a114.36,114.36,0,0,1,58.75-2.16c25.77,5.78,39.92,23.07,41,49.52.21,5.09,2.3,11.72-1,14.83-2.61,2.45-9.16.79-14,.82-8.66.06-17.34-.22-26,.12-4.11.17-5.18-1.27-4.94-5.07a40.1,40.1,0,0,0-2.1-14.76c-3.43-10.61-11.08-15.33-22.78-14.15-11.36,1.15-18.87,8.19-20.23,18.67s1.74,19,9.38,26.14,16.73,12,25.77,17c12,6.59,23.9,13.15,34.7,21.67,30.12,23.76,28,63.2,15.81,86.63-5.35,10.28-14.09,17.14-24.72,21.6-1.94.82-3.91,1.58-7.05,2.85h94.91c.08-.83-.76-.73-1.27-.89-22.63-6.93-34.41-23.22-39.42-45.46-3.24-14.38-4.27-29-4.65-43.64-.64-25-1.22-50,2.59-74.81a100.53,100.53,0,0,1,7.45-26.33c6.93-15.31,18-26.36,34-31.8,21.42-7.27,43.18-7.9,64.78-1,25.37,8.09,40.76,29,41.77,55.69.48,12.74.48,12.74-12,12.74-9.66,0-19.34-.29-29,.13-4.56.2-5.73-1.45-5.72-5.55A52.73,52.73,0,0,0,397.12,97c-3.43-10.48-10.38-15.94-21.72-16.89-10.79-.91-19.3,2.67-24.58,12.55-4.25,7.94-6.08,16.63-6.67,25.42-2.17,32-2.5,63.91.91,95.81a64.48,64.48,0,0,0,4.16,16.92c3.77,9.56,11,14.31,21,15.11A69.35,69.35,0,0,0,395.39,243c2.5-.73,3.87-1.66,3.83-4.71q-.27-21.24,0-42.49c0-3.08-.87-4.05-3.95-3.93-6,.22-12,0-18,.11-2.64.07-3.44-.84-3.41-3.43q.18-14,0-28c0-2.54.74-3.5,3.4-3.49q32.75.12,65.5,0c2.74,0,3.32,1.07,3.32,3.54q-.09,53.75,0,107.5c0,2.78-.94,3.71-3.63,4a83.23,83.23,0,0,0-12.52,2.64h61.86c0-1.09-.89-1-1.39-1.2-21.26-8.48-30.23-25.46-32.27-47-.55-5.79-.16-11.66-.33-17.48-.07-2.58.92-3.46,3.51-3.44q20,.15,40,0c3,0,3.64,1.22,3.59,3.88-.12,6.5.14,13,1.87,19.32,2.32,8.54,7.59,13.8,16.36,15.53a37.73,37.73,0,0,0,14.4.2c18.39-3.48,20.83-26.89,13.62-38A52.07,52.07,0,0,0,535,191.15c-9.69-6.17-19.64-11.91-29.44-17.9-12-7.32-23.53-15.18-32.32-26.42-17.44-22.31-16.91-59.53,1.29-80.3,9.34-10.67,21.82-15.68,35.33-18.11,18-3.25,36.11-3.54,54,1.53,18.8,5.35,30.47,17.63,35.1,36.61.27,1.13.54,2.26.84,3.38.24.88.54,1.74.94,3,0-29.84,0-59.17,0-88.5,0-1.16.17-2.31.26-3.47h3q0,134.42-.11,268.83c0,4.18,1.12,5.22,5.24,5.19,26.15-.2,52.3-.1,78.45-.1,1.17,0,2.33,0,3.5,0s1.94.38,1.85,1.72c-.07,1-.75,1.39-1.65,1.42-1.33,0-2.66,0-4,0-26.15,0-52.3.1-78.45-.09-4,0-5,1.12-4.93,5,.22,14.65.1,29.31.1,44h-3q-.13-21.22-.27-42.46c-.05-7.33.69-6.4-6.4-6.4q-293.42,0-586.84,0c-2.16,0-4.33-.08-6.49-.12Zm598.68-81.47a10.72,10.72,0,0,0,.77-2.24c0-24.66,0-49.33.11-74,0-3.25-1.67-3.33-4.07-3.32-12.5,0-25-.07-37.5.09-3,0-4.15-.82-4-3.92a39.75,39.75,0,0,0-1.88-13.29C549.41,84.19,540.8,78.49,528,80.19c-12.47,1.65-19.63,9.87-19.89,22.84-.23,12.16,6.66,20.17,15.73,26.83,10.65,7.81,22.65,13.35,34,19.95,11,6.38,21.5,13.33,29.92,23.07C592.88,178.79,596.4,185.63,599.68,193.53Zm-36.33,81.39c11.15,0,22.3-.09,33.44.06,3,0,4.05-.81,4-3.92-.16-11.84-.07-23.69-.07-35.54C595.1,255.18,582.72,268.12,563.35,274.92Z" transform="translate(-1 -1)" fill="#7b7b7b"/>
</svg>