<svg id="a9104e4d-5c47-4305-a9ff-e319d86fc304" data-name="Layer 1" 
    xmlns="http://www.w3.org/2000/svg" viewBox="0 0 100.13 100.13">
    <title>snapseed</title>
    <path d="M101,47c0,17-.06,34,.07,51,0,2.5-.57,3.08-3.07,3.07C78,101,58,101,38,101c-.4-3.08,2.52-3.17,4.09-4.26,18.76-13.09,29-30.23,26-53.79,5.94,0,11.89.2,17.83,0C91.37,42.82,96.69,42.91,101,47Z" transform="translate(-0.93 -0.93)" fill="#dddcdd"/>
    <path d="M36,1c7.49,5.51,15.86,9.9,21.37,17.84,4.44,6.39,8.77,12.78,9.65,20.79.77,3-.28,5.4-2.6,7.44Q49.74,60,35.15,72.92l-.28.11V39l-.16-1q0-17.47-.07-35c.11-.38.21-.76.31-1.14A1.71,1.71,0,0,1,35,1Z" transform="translate(-0.93 -0.93)" fill="#aed480"/>
    <path d="M34.64,3q0,17.48.07,35c-.07.11-.22.25-.19.34a5,5,0,0,0,.35.69V73c-7.31-6.51-14.44-13.23-22-19.46C9,50.34,5.92,46,1,44V43c2.32-3.29,2.45-7.36,3.91-11,1.92-4.76,4-8.66,10.24-7.18,3.17.76,3.87-1,3.84-3.9,0-3.08-1.44-6.88.74-9.13,4.06-4.2,8.64-8.06,14.62-9.55A.52.52,0,0,0,34.64,3Z" transform="translate(-0.93 -0.93)" fill="#0c8142"/>
    <path d="M1,44c4.92,2,8,6.34,11.89,9.57,7.54,6.23,14.67,12.95,22,19.46l.28-.11L35,101H34c-.3-.34-.53-.81-.91-1C18,91.6,7,79.77,2.49,62.7,2.27,61.91,2.05,61.08,1,61Z" transform="translate(-0.93 -0.93)" fill="#0d562d"/>
    <path d="M35,101l.15-28.08Q49.78,60,64.42,47.07c2.32-2,3.37-4.39,2.6-7.44.35,1.11.69,2.21,1,3.32,3,23.56-7.2,40.7-26,53.79C40.52,97.83,37.6,97.92,38,101Z" transform="translate(-0.93 -0.93)" fill="#8ac149"/>
    <path d="M34.35,2.26a.63.63,0,0,1,.6-.39c-.1.38-.2.76-.31,1.14A.52.52,0,0,1,34.35,2.26Z" transform="translate(-0.93 -0.93)" fill="#8ac149"/>
    <path d="M34.87,39a5,5,0,0,1-.35-.69c0-.09.12-.23.19-.34C34.76,38.31,34.82,38.65,34.87,39Z" transform="translate(-0.93 -0.93)" fill="#8ac149"/>
</svg>