<svg id="be9ddd78-810c-4d6a-a8ff-393c28abf792" data-name="Layer 1" 
    xmlns="http://www.w3.org/2000/svg" viewBox="0 0 100.51 100.51">
    <title>typescript</title>
    <path d="M95,1h3c2,3.8,2,7.9,2,12.07q-.09,38.85,0,77.69c0,2.1-.53,4.34,1,6.24q1.14,5.13-4,4c-1.89-1.53-4.13-1-6.24-1q-38.83,0-77.68,0c-4.17,0-8.28,0-12.08-2V95c1.27-1.58,1-3.47,1-5.28Q2,51,2,12.27c0-1.8.29-3.69-1-5.27Q-.69-.7,7,1c1.58,1.29,3.47,1,5.27,1Q51,2,89.72,2C91.53,2,93.42,2.27,95,1ZM79.7,94c3.68-.34,9.3-.6,12.19-5.86,4.57-8.33,2.21-15.58-6.1-20.15-3.35-1.84-6.93-3.27-10.26-5.14-2-1.15-3.1-3.08-2-5.51s3.24-2.63,5.52-2.32c1.57.22,2.59,1.32,3.74,2.31,3.22,2.73,4.38-1.5,6.62-2.16,1.14-.34,1.78-1.09.89-2.65-2.39-4.22-9.06-6.85-15.53-5.82C69,47.59,64.7,51.59,63.9,56.86,63,62.86,65.69,68.7,70.47,71c3.58,1.75,7.21,3.43,10.77,5.24,2,1,3.66,2.61,3.19,5.11-.49,2.68-2.63,3.72-5.12,4A9.55,9.55,0,0,1,70.38,82c-3.64-4.33-6,.42-8.18,1.75-2.87,1.72.53,3.39,1.51,4.47C67.49,92.41,72.48,94.09,79.7,94ZM35.59,74.46c0,5.16.16,10.33-.06,15.48-.14,3.55,1.31,4.76,4.7,4.64,3.15-.1,4.92-.94,4.84-4.62-.2-8.65-.07-17.31-.07-26,0-7.48,0-7.46,7.68-7.76a13.21,13.21,0,0,0,3.91-.62c3.52-1.26,1.35-4.28,1.74-6.47S57,46.94,55.38,47c-10,0-20,.06-30,0-2.27,0-3,.65-3.3,3.07-.53,4.4.82,6.19,5.3,5.46,1.3-.22,2.67.09,4-.06,3.12-.36,4.51.56,4.28,4.07C35.35,64.45,35.59,69.46,35.59,74.46Z" transform="translate(-0.69 -0.69)" fill="#027acb"/>
    <path d="M101,97c-1.5-1.9-1-4.14-1-6.24q0-38.85,0-77.69c0-4.17,0-8.27-2-12.07,2.5-.5,3.07.5,3.06,3Q100.93,50.5,101,97Z" transform="translate(-0.69 -0.69)" fill="#1d89d1"/>
    <path d="M1,98c3.8,2,7.91,2,12.08,2q38.84-.09,77.68,0c2.11,0,4.35-.56,6.24,1q-46.26,0-92.53,0C2.25,101,.11,101.37,1,98Z" transform="translate(-0.69 -0.69)" fill="#1d89d1"/>
    <path d="M95,1c-1.58,1.27-3.47,1-5.28,1Q51,2,12.27,2C10.47,2,8.58,2.29,7,1Z" transform="translate(-0.69 -0.69)" fill="#1d89d1"/>
    <path d="M1,7c1.29,1.58,1,3.47,1,5.27Q2,51,2,89.72c0,1.81.27,3.7-1,5.28Z" transform="translate(-0.69 -0.69)" fill="#1d89d1"/>
    <path d="M79.7,94c-7.22.13-12.21-1.55-16-5.73-1-1.08-4.38-2.75-1.51-4.47,2.22-1.33,4.54-6.08,8.18-1.75a9.55,9.55,0,0,0,8.93,3.37c2.49-.27,4.63-1.31,5.12-4,.47-2.5-1.15-4.07-3.19-5.11-3.56-1.81-7.19-3.49-10.77-5.24C65.69,68.7,63,62.86,63.9,56.86c.8-5.27,5.06-9.27,10.88-10.2,6.47-1,13.14,1.6,15.53,5.82.89,1.56.25,2.31-.89,2.65-2.24.66-3.4,4.89-6.62,2.16-1.15-1-2.17-2.09-3.74-2.31-2.28-.31-4.42-.07-5.52,2.32s-.05,4.36,2,5.51c3.33,1.87,6.91,3.3,10.26,5.14,8.31,4.57,10.67,11.82,6.1,20.15C89,93.36,83.38,93.62,79.7,94Z" transform="translate(-0.69 -0.69)" fill="#f6f9fc"/>
    <path d="M35.59,74.46c0-5-.24-10,.08-15,.23-3.51-1.16-4.43-4.28-4.07-1.32.15-2.69-.16-4,.06-4.48.73-5.83-1.06-5.3-5.46.3-2.42,1-3.09,3.3-3.07,10,.07,20,0,30,0,1.57,0,3.35,0,2.95,2.19s1.78,5.21-1.74,6.47a13.21,13.21,0,0,1-3.91.62C45,56.53,45,56.51,45,64c0,8.66-.13,17.32.07,26,.08,3.68-1.69,4.52-4.84,4.62-3.39.12-4.84-1.09-4.7-4.64C35.75,84.79,35.59,79.62,35.59,74.46Z" transform="translate(-0.69 -0.69)" fill="#f6f9fc"/>
</svg>